<?xml version="1.0" encoding="utf-8"?>
<!-- Generator: Adobe Illustrator 27.2.0, SVG Export Plug-In . SVG Version: 6.00 Build 0)  -->
<svg version="1.1" id="_레이어_1" xmlns="http://www.w3.org/2000/svg" xmlns:xlink="http://www.w3.org/1999/xlink" x="0px"
	 y="0px" viewBox="0 0 20.5 22.2" style="enable-background:new 0 0 20.5 22.2;" xml:space="preserve">
<style type="text/css">
	.st0{clip-path:url(#SVGID_00000077312756011807073150000015579644907840653442_);}
	.st1{fill:none;stroke:#313131;stroke-width:2;stroke-miterlimit:10;}
</style>
<g id="_그룹_330">
	<g>
		<defs>
			<rect id="SVGID_1_" width="20.5" height="22.2"/>
		</defs>
		<clipPath id="SVGID_00000012450304574933843070000015127597423250220950_">
			<use xlink:href="#SVGID_1_"  style="overflow:visible;"/>
		</clipPath>
		<g style="clip-path:url(#SVGID_00000012450304574933843070000015127597423250220950_);">
			<g id="_그룹_329">
				<path id="_패스_327" class="st1" d="M17,7.7c0-3.7-3-6.8-6.8-6.8S3.5,4,3.5,7.7v6.1L1,17c-0.2,0.3-0.2,0.6,0.1,0.8
					c0.1,0.1,0.2,0.1,0.4,0.1h17.4c0.3,0,0.6-0.3,0.6-0.6c0-0.1,0-0.3-0.1-0.4L17,13.8L17,7.7z"/>
				<path id="_패스_328" class="st1" d="M6.9,18c0,1.8,1.5,3.3,3.3,3.3s3.3-1.5,3.3-3.3C13.5,18,6.9,18,6.9,18z"/>
			</g>
		</g>
	</g>
</g>
</svg>
