<?xml version="1.0" encoding="utf-8"?>
<!-- Generator: Adobe Illustrator 27.2.0, SVG Export Plug-In . SVG Version: 6.00 Build 0)  -->
<svg version="1.1" id="레이어_1" xmlns="http://www.w3.org/2000/svg" xmlns:xlink="http://www.w3.org/1999/xlink" x="0px"
	 y="0px" viewBox="0 0 384 384" style="enable-background:new 0 0 384 384;" xml:space="preserve">
<style type="text/css">
	.st0{fill:#003091;}
	.st1{fill:#003197;}
	.st2{fill:#313131;}
	.st3{clip-path:url(#SVGID_00000090258339324623570550000009768484952738958478_);}
	.st4{fill:#5979BB;}
	.st5{fill:#707070;}
	.st6{fill:#EBC0D0;}
	.st7{fill:#FFFFFF;}
	.st8{fill:#C0D6EB;}
	.st9{fill:#002F92;}
	.st10{fill:#C6C6C6;}
	.st11{clip-path:url(#SVGID_00000034776668347831114620000004238692815512087963_);}
	.st12{clip-path:url(#SVGID_00000125589263271428902900000011869176622200570526_);}
	.st13{clip-path:url(#SVGID_00000136379254676858504520000002682323976021848474_);}
</style>
<g>
	<g>
		<path class="st0" d="M342.68,326.86H41.81c-10.17,0-19.29-5.66-23.8-14.76c-4.52-9.1-3.51-19.79,2.65-27.88l38.24-50.35V133.34
			C58.9,59.81,118.72,0,192.24,0s133.35,59.81,133.35,133.34v100.53l38.25,50.35c6.15,8.09,7.16,18.77,2.64,27.88
			C361.97,321.2,352.85,326.86,342.68,326.86z M53.17,294.66h278.16l-37.94-49.94V133.34c0-55.76-45.37-101.14-101.14-101.14
			c-55.77,0-101.14,45.37-101.14,101.14v111.38L53.17,294.66z"/>
	</g>
	<g>
		<path class="st0" d="M192.24,383.62c-40.17,0-72.86-32.69-72.86-72.86v-16.1h145.74v16.1
			C265.12,350.93,232.43,383.62,192.24,383.62z M154.91,326.86c6.25,14.43,20.63,24.56,37.34,24.56s31.09-10.13,37.34-24.56H154.91z
			"/>
	</g>
</g>
</svg>
