<?xml version="1.0" encoding="utf-8"?>
<!-- Generator: Adobe Illustrator 27.2.0, SVG Export Plug-In . SVG Version: 6.00 Build 0)  -->
<svg version="1.1" id="레이어_1" xmlns="http://www.w3.org/2000/svg" xmlns:xlink="http://www.w3.org/1999/xlink" x="0px"
	 y="0px" viewBox="0 0 384 384" style="enable-background:new 0 0 384 384;" xml:space="preserve">
<style type="text/css">
	.st0{fill:#003091;}
	.st1{fill:#003197;}
	.st2{fill:#313131;}
	.st3{clip-path:url(#SVGID_00000012467190276930006550000004347040972760632730_);}
	.st4{fill:#5979BB;}
	.st5{fill:#707070;}
	.st6{fill:#EBC0D0;}
	.st7{fill:#FFFFFF;}
	.st8{fill:#C0D6EB;}
	.st9{fill:#002F92;}
	.st10{fill:#C6C6C6;}
	.st11{clip-path:url(#SVGID_00000149344386622145054000000002971078839406343346_);}
	.st12{clip-path:url(#SVGID_00000093135396875452839790000004324426235166397317_);}
	.st13{clip-path:url(#SVGID_00000134971058716866883000000006080749318285937578_);}
</style>
<g>
	<g id="그룹_330" transform="translate(1.64 0)">
		<g>
			<defs>
				<rect id="SVGID_00000108992490446824719730000008792241523001270419_" x="22.61" y="12" width="336" height="363"/>
			</defs>
			<clipPath id="SVGID_00000132069256567955247170000011358743589708141957_">
				<use xlink:href="#SVGID_00000108992490446824719730000008792241523001270419_"  style="overflow:visible;"/>
			</clipPath>
			
				<g id="그룹_329" transform="translate(0 0)" style="clip-path:url(#SVGID_00000132069256567955247170000011358743589708141957_);">
				<g id="패스_327">
					<path class="st0" d="M55.46,315.43c-5.37,0-10.85-1.88-15.25-5.33c-10.82-8.49-12.76-24.23-4.27-35.1l34.21-44.99v-90.41
						c0-67,54.5-121.5,121.5-121.5c66.99,0,121.49,54.5,121.49,121.5V230l34.32,45.16c3.39,4.37,5.25,9.95,5.18,15.62
						c-0.08,6.64-2.76,12.9-7.56,17.56c-4.81,4.69-11.79,6.7-17.82,7.1H55.79C55.68,315.43,55.58,315.43,55.46,315.43z
						 M322.58,294.1c0.03,0.03,0.05,0.06,0.08,0.09L322.58,294.1z M60.78,293.98l-0.09,0.11C60.72,294.04,60.75,294.01,60.78,293.98
						z M55.65,284.16c-0.03,0-0.06,0-0.09,0h0.18C55.72,284.16,55.68,284.16,55.65,284.16z M191.65,49.37
						c-49.75,0-90.24,40.49-90.24,90.24v100.94l-33.17,43.62h246.79l-33.16-43.63V139.61C281.87,89.86,241.4,49.37,191.65,49.37z
						 M327.41,284.16c-0.02,0-0.05,0-0.08,0h0.15C327.45,284.16,327.44,284.16,327.41,284.16z"/>
				</g>
				<g id="패스_328">
					<path class="st0" d="M191.66,366.69c-36.88,0-66.9-30.01-66.9-66.9v-15.63h133.79v15.63
						C258.56,336.68,228.54,366.69,191.66,366.69z M159.65,315.43c5.8,11.83,17.97,20,32.01,20s26.21-8.17,32.01-20H159.65z"/>
				</g>
			</g>
		</g>
	</g>
	<g id="선_121">
		<path class="st0" d="M364.19,333.14c-3.59,0-7.22-0.99-10.47-3.05L9.8,111.23c-9.11-5.8-11.79-17.88-6-26.98
			c5.8-9.11,17.88-11.75,26.98-6L374.7,297.11c9.11,5.8,11.79,17.88,6,26.98C376.97,329.95,370.65,333.14,364.19,333.14z"/>
	</g>
</g>
</svg>
