<?xml version="1.0" encoding="UTF-8"?>
<svg id="_레이어_1" data-name="레이어 1" xmlns="http://www.w3.org/2000/svg" viewBox="0 0 250 250">
  <defs>
    <style>
      .cls-1 {
        fill: #003091;
      }

      .cls-2 {
        fill: #fff;
      }

      .cls-3 {
        isolation: isolate;
      }
    </style>
  </defs>
  <g id="_패스_388" data-name="패스 388">
    <path class="cls-1" d="m125,0c69.04,0,125,55.96,125,125s-55.96,125-125,125S0,194.04,0,125,55.96,0,125,0Z"/>
  </g>
  <g id="B" class="cls-3">
    <g class="cls-3">
      <path class="cls-2" d="m171.12,150.79c0,5.46-.91,10.4-2.75,14.86s-4.4,8.15-7.68,11.11c-3.29,2.94-7.2,5.2-11.78,6.76-4.56,1.55-9.59,2.34-15.1,2.34h-50.93v-121.71h48.92c7.73,0,14.45,1.39,20.16,4.17,5.7,2.79,10.03,6.73,12.97,11.85,2.95,5.12,4.43,11.16,4.43,18.12,0,3.22-.45,6.19-1.34,8.89-.9,2.7-2.12,5.18-3.67,7.42-1.57,2.26-3.2,4.1-4.93,5.51-1.72,1.43-3.42,2.52-5.09,3.3,4.56,2.05,8.5,5.29,11.81,9.68,3.3,4.39,4.96,10.3,4.96,17.7Zm-25.45-51.42c0-2.84-.63-5.32-1.87-7.42-1.26-2.12-3.03-3.75-5.3-4.89-2.29-1.14-5.15-1.71-8.6-1.71h-23.21v28.05h23.21c5.01,0,8.9-1.27,11.65-3.8,2.76-2.53,4.14-5.93,4.14-10.22Zm1.67,50.25c0-4.39-1.35-7.98-4.05-10.72-2.71-2.76-6.64-4.14-11.81-4.14h-24.8v29.88h24.8c5.11,0,9.04-1.4,11.76-4.21,2.74-2.81,4.1-6.42,4.1-10.81Z"/>
    </g>
  </g>
</svg>