<?xml version="1.0" encoding="UTF-8"?>
<svg id="_레이어_1" data-name="레이어 1" xmlns="http://www.w3.org/2000/svg" viewBox="0 0 250 250">
  <defs>
    <style>
      .cls-1 {
        fill: #003091;
      }

      .cls-2 {
        fill: #fff;
      }

      .cls-3 {
        isolation: isolate;
      }
    </style>
  </defs>
  <g id="_패스_390" data-name="패스 390">
    <path class="cls-1" d="m125,0c69.04,0,125,55.96,125,125s-55.96,125-125,125S0,194.04,0,125,55.96,0,125,0Z"/>
  </g>
  <g id="BA" class="cls-3">
    <g class="cls-3">
      <path class="cls-2" d="m113.44,144.85c0,4.2-.71,8.01-2.12,11.44s-3.39,6.27-5.91,8.54-5.54,4.01-9.06,5.2-7.39,1.8-11.63,1.8h-39.19v-93.67h37.65c5.96,0,11.13,1.07,15.52,3.21s7.72,5.18,9.99,9.12,3.41,8.58,3.41,13.94c0,2.48-.34,4.77-1.03,6.85-.69,2.07-1.63,3.98-2.83,5.71-1.2,1.75-2.46,3.16-3.79,4.24-1.33,1.11-2.63,1.94-3.92,2.54,3.51,1.58,6.54,4.07,9.09,7.45,2.55,3.38,3.82,7.93,3.82,13.62Zm-19.6-39.58c0-2.18-.48-4.09-1.45-5.72s-2.33-2.88-4.08-3.76c-1.75-.87-3.96-1.31-6.62-1.31h-17.86v21.59h17.86c3.85,0,6.84-.98,8.96-2.93,2.12-1.94,3.18-4.56,3.18-7.86Zm1.28,38.68c0-3.38-1.04-6.14-3.12-8.25-2.08-2.13-5.11-3.19-9.09-3.19h-19.08v23h19.08c3.94,0,6.96-1.08,9.06-3.24,2.1-2.17,3.15-4.95,3.15-8.33Z"/>
      <path class="cls-2" d="m204.47,171.84h-19.08l-5.53-16.58h-33.28l-5.65,16.58h-19.08l34.12-93.67h14.33l34.18,93.67Zm-29.43-32l-11.5-34.05-11.82,34.05h23.32Z"/>
    </g>
  </g>
</svg>