<?xml version="1.0" encoding="UTF-8"?>
<svg id="_레이어_1" data-name="레이어 1" xmlns="http://www.w3.org/2000/svg" xmlns:xlink="http://www.w3.org/1999/xlink" viewBox="0 0 30 30">
  <defs>
    <style>
      .cls-1 {
        fill: none;
      }

      .cls-2 {
        clip-path: url(#clippath);
      }

      .cls-3 {
        fill: #313131;
      }
    </style>
    <clipPath id="clippath">
      <rect class="cls-1" x=".72" y="1.48" width="28.36" height="27.05"/>
    </clipPath>
  </defs>
  <g id="_그룹_370" data-name="그룹 370">
    <g class="cls-2">
      <g id="_그룹_369" data-name="그룹 369">
        <path id="_패스_350" data-name="패스 350" class="cls-3" d="m29.07,1.48v8.56h-3.71c.39,6.18.77,12.32,1.15,18.49H3.27c.38-6.15.77-12.29,1.15-18.47H.72V1.48h28.36Zm-4.67,25.08c-.4-6.39-.8-12.77-1.19-19.14H6.57c-.4,6.38-.8,12.76-1.19,19.14h19.02ZM2.69,8.05h1.85c.06-.88.12-1.75.17-2.61h20.35c.06.88.12,1.75.17,2.61h1.84V3.46H2.69v4.59Z"/>
        <path id="_패스_351" data-name="패스 351" class="cls-3" d="m13.89,22.91v-1.29h-2.62v-1.98h4.17c.55.05,1.04-.36,1.08-.91,0-.11,0-.21-.02-.31-.09-.43-.47-.74-.9-.75-.43-.01-.87,0-1.3,0-1.55.03-2.86-1.12-3.03-2.66-.16-1.5.84-2.88,2.31-3.2.09-.02.18-.04.3-.06v-1.34h1.97v1.31h2.63v1.98h-4.28c-.54,0-.98.44-.98.98,0,.35.18.67.49.85.19.09.41.14.62.15.45.02.91,0,1.36.02,1.63.08,2.89,1.46,2.81,3.09-.06,1.32-1,2.44-2.29,2.74l-.35.08v1.32h-1.99Z"/>
      </g>
    </g>
  </g>
</svg>