<?xml version="1.0" encoding="UTF-8"?>
<svg id="_레이어_1" data-name="레이어 1" xmlns="http://www.w3.org/2000/svg" xmlns:xlink="http://www.w3.org/1999/xlink" viewBox="0 0 30 30">
  <defs>
    <style>
      .cls-1 {
        fill: none;
      }

      .cls-2 {
        clip-path: url(#clippath);
      }

      .cls-3 {
        fill: #313131;
      }
    </style>
    <clipPath id="clippath">
      <rect class="cls-1" x="-.12" y="1.71" width="30.23" height="26.58"/>
    </clipPath>
  </defs>
  <g id="_그룹_373" data-name="그룹 373">
    <g id="_그룹_372" data-name="그룹 372">
      <g class="cls-2">
        <g id="_그룹_371" data-name="그룹 371">
          <path id="_패스_352" data-name="패스 352" class="cls-3" d="m30.12,14.59v.77l-.6,1.49c.13.19.24.39.35.59.1.25.18.5.25.75v.77s-.03.03-.04.04c-.16.91-.78,1.67-1.64,2.02-.08.06-.13.15-.15.25-.14.56-.22,1.14-.41,1.68-1.13,3.21-4.17,5.35-7.57,5.33-3.47.01-6.95.01-10.42,0-.52,0-1.04-.04-1.56-.12-3.46-.58-6.13-3.35-6.61-6.82,0-.17-.11-.33-.28-.39-1.16-.5-1.79-1.77-1.49-3,.14-.44.33-.86.54-1.27.02.04.01.02,0,0-.94-1.12-.8-2.79.31-3.73.21-.17.44-.32.69-.42.09-.06.16-.15.17-.26.07-.47.09-.94.16-1.41.3-2.4,1.48-4.6,3.3-6.18,1.53-1.27,3.35-2.13,5.3-2.52,2.12-.45,4.29-.59,6.45-.4,1.86.11,3.68.54,5.39,1.29,2.48,1.05,4.42,3.08,5.33,5.61.4,1.08.63,2.22.68,3.37-.02.26.13.51.38.6.66.31,1.15.9,1.34,1.6.03.11.07.22.11.33m-3.58-2.26c-.03-.29-.05-.56-.08-.83-.26-3.18-2.35-5.91-5.34-7-1.57-.6-3.24-.93-4.92-.98-2.17-.16-4.36.07-6.45.68-2.62.67-4.74,2.57-5.68,5.1-.36.97-.56,1.99-.6,3.03h23.08Zm-.03,8.91s-.05-.02-.08-.03c-.8-.16-1.63.15-2.14.79-.74.88-1.94,1.22-3.03.87-.7-.21-1.32-.64-1.75-1.23-.44-.54-1.23-.61-1.77-.17-.06.05-.12.11-.17.17-.13.14-.25.28-.38.41-.88.9-2.21,1.18-3.37.7-.55-.25-1.02-.64-1.39-1.12-.26-.31-.65-.47-1.05-.44-.36.01-.69.18-.92.46-.41.56-.98.98-1.65,1.19-1.18.39-2.48,0-3.26-.96-.5-.6-1.3-.85-2.06-.66,0,.03,0,.06,0,.09.51,2.98,3.08,5.17,6.1,5.19,3.58.02,7.16,0,10.75,0,.91,0,1.81-.2,2.62-.6,1.88-.87,3.21-2.63,3.53-4.68m-.11-1.78v-.02h.83c.71,0,1.12-.33,1.12-.89s-.41-.88-1.12-.88H2.55c-.49-.01-.9.37-.91.86-.01.49.37.9.86.91.02,0,.04,0,.06,0,.37.02.75.02,1.12,0,1.26-.15,2.5.36,3.28,1.36.44.53,1.23.59,1.76.15.06-.05.12-.11.17-.17.11-.11.21-.23.32-.35,1.11-1.25,3.03-1.35,4.27-.24.08.07.16.15.23.23.12.13.24.26.36.39.47.52,1.26.56,1.78.1.03-.03.07-.06.1-.1.11-.12.23-.25.34-.37,1.11-1.25,3.03-1.36,4.27-.25.09.08.17.16.25.25.14.14.27.29.4.43.22.22.51.35.82.35.47.02.92-.21,1.18-.6.48-.65,1.21-1.07,2.02-1.15.39-.03.79,0,1.18,0m-11.43-3.57h12.55c.43-.03.78-.36.83-.78.05-.43-.22-.83-.64-.94-.15-.03-.31-.05-.47-.04H2.51c-.49.02-.87.43-.85.92.02.42.33.77.74.84.12.01.24.02.35.01h12.21"/>
        </g>
      </g>
    </g>
  </g>
</svg>