<?xml version="1.0" encoding="UTF-8"?>
<svg id="_레이어_1" data-name="레이어 1" xmlns="http://www.w3.org/2000/svg" xmlns:xlink="http://www.w3.org/1999/xlink" viewBox="0 0 30 30">
  <defs>
    <style>
      .cls-1 {
        fill: none;
      }

      .cls-2 {
        clip-path: url(#clippath);
      }

      .cls-3 {
        fill: #313131;
        stroke: #313131;
        stroke-width: .2px;
      }
    </style>
    <clipPath id="clippath">
      <rect class="cls-1" x=".77" y=".19" width="28.68" height="29.62"/>
    </clipPath>
  </defs>
  <g id="_그룹_436" data-name="그룹 436">
    <g class="cls-2">
      <g id="_그룹_435" data-name="그룹 435">
        <path id="_패스_381" data-name="패스 381" class="cls-3" d="m6.99.19c1.58.94,2.14,2.95,1.28,4.58-.3.43-.65.83-1.04,1.18-.31.25-.53.58-.65.96-.08.48.06.97.38,1.34.13.18.28.34.43.51.33.35.3.9-.05,1.22-.33.31-.85.31-1.18,0-.75-.65-1.22-1.56-1.34-2.54-.08-1.01.33-1.99,1.1-2.64.25-.24.51-.47.74-.73.36-.39.43-.96.17-1.42-.14-.29-.32-.56-.54-.81-.6-.69-.54-1.17.24-1.64h.46Z"/>
        <path id="_패스_382" data-name="패스 382" class="cls-3" d="m12.48.19c.8.46,1.38,1.23,1.61,2.12.4,1.2.01,2.51-.96,3.31-.25.24-.51.47-.74.73-.35.37-.42.92-.18,1.37.2.37.45.71.72,1.03.33.34.32.88-.02,1.2-.12.11-.26.19-.42.22-.25.04-.51-.01-.72-.16-.84-.68-1.36-1.68-1.43-2.76-.02-.96.4-1.87,1.13-2.49.24-.22.49-.44.7-.68.36-.38.44-.96.19-1.42-.15-.3-.33-.58-.55-.84-.6-.7-.53-1.2.26-1.63h.4Z"/>
        <path id="_패스_383" data-name="패스 383" class="cls-3" d="m18.03.19c1.63.92,2.2,2.98,1.29,4.61-.17.3-.39.58-.64.81-.25.21-.48.44-.71.68-.4.41-.48,1.03-.19,1.52.2.34.43.66.69.95.32.34.3.88-.04,1.2-.12.11-.26.18-.42.21-.24.04-.5-.01-.7-.16-.91-.72-1.44-1.82-1.43-2.99.04-.88.45-1.69,1.12-2.26.24-.23.5-.45.72-.7.36-.39.43-.96.18-1.42-.15-.3-.34-.58-.56-.83-.59-.69-.51-1.22.29-1.63h.41Z"/>
        <path id="_패스_384" data-name="패스 384" class="cls-3" d="m8.98,29.26c-1.53-.49-2.94-1.29-4.16-2.33l-.03-.03c-2.56-2.13-4.03-5.29-4.02-8.62-.02-1.46,0-2.92,0-4.38-.08-.49.26-.94.75-1.02.09-.01.18-.01.26,0h21.34c.68,0,1,.32,1,1.02v.49h.98c2.44.04,4.39,2.05,4.35,4.49-.04,2.27-1.79,4.15-4.06,4.33-.72.04-1.44.02-2.16.02-.14-.02-.28.06-.33.19-.92,1.8-2.31,3.32-4.02,4.41-2.91,1.96-6.55,2.49-9.89,1.43M2.47,14.63c0,.65-.01,1.29,0,1.92.02,1.02,0,2.04.11,3.05.22,1.9,1.05,3.67,2.35,5.06,1.56,1.74,3.67,2.87,5.98,3.2,1.54.24,3.11.12,4.59-.35,2.06-.63,3.86-1.91,5.12-3.66,1.01-1.32,1.61-2.9,1.74-4.55.1-1.53.05-3.07.06-4.61,0-.02-.01-.03-.03-.06H2.47Zm21.2,6.82c.63.04,1.26.03,1.89-.01,1.45-.27,2.4-1.65,2.14-3.1-.05-.26-.14-.51-.26-.75-.7-1.32-1.9-1.59-3.32-1.42.13,1.77-.03,3.56-.46,5.28"/>
      </g>
    </g>
  </g>
</svg>