<?xml version="1.0" encoding="UTF-8"?>
<svg id="_레이어_1" data-name="레이어 1" xmlns="http://www.w3.org/2000/svg" xmlns:xlink="http://www.w3.org/1999/xlink" viewBox="0 0 30 33.98">
  <defs>
    <style>
      .cls-1 {
        fill: none;
      }

      .cls-2 {
        clip-path: url(#clippath);
      }

      .cls-3 {
        fill: #313131;
      }
    </style>
    <clipPath id="clippath">
      <rect class="cls-1" x="2.86" y=".33" width="25.56" height="33.44"/>
    </clipPath>
  </defs>
  <g id="_그룹_404" data-name="그룹 404">
    <g class="cls-2">
      <g id="_그룹_403" data-name="그룹 403">
        <path id="_패스_371" data-name="패스 371" class="cls-3" d="m9.84,33.77c-.37-.18-.59-.58-.53-.99.03-.73,0-1.45,0-2.22h-1.25c-.38,0-.76,0-1.14,0-.41.04-.77-.26-.81-.67,0-.05,0-.09,0-.14,0-.66,0-1.33,0-1.99v-.41h-2.34c-.61,0-.88-.27-.88-.88,0-1.05,0-2.09,0-3.13V6.39c-.02-.19-.02-.39,0-.59.03-.25.13-.49.28-.7,1.47-1.51,2.98-3,4.46-4.49.18-.19.43-.3.69-.29,4.25,0,8.51,0,12.76,0,.64,0,.9.27.9.92v2.29h1.97c1.1,0,1.24.14,1.24,1.24v1.96c.14,0,.25.02.37.02h1.86c.75,0,.99.24.99,1v6.92c0,6.03,0,12.06,0,18.09.06.42-.17.83-.56,1H9.84Zm-5.46-7.93h16.09V1.84h-11.49v3.61c0,.72-.26.99-.98.99h-3.62v19.39Zm22.53,6.43V8.27h-1.71v21.28c0,.78-.23,1.01-1.01,1.01h-13.36v1.7h16.08Zm-4.93-27.21v21.36c0,.66-.26.93-.93.93H7.61v1.7h16.09V5.05h-1.71ZM7.47,3.05l-1.87,1.84h1.87v-1.84Z"/>
      </g>
    </g>
  </g>
</svg>