<?xml version="1.0" encoding="UTF-8"?>
<svg id="_레이어_1" data-name="레이어 1" xmlns="http://www.w3.org/2000/svg" viewBox="0 0 36.8 36.83">
  <defs>
    <style>
      .cls-1 {
        fill: #fff;
      }

      .cls-2 {
        fill: #c6cfd8;
      }

      .cls-3 {
        fill: #707070;
      }
    </style>
  </defs>
  <g id="_그룹_338" data-name="그룹 338">
    <g id="_패스_324-2" data-name="패스 324-2">
      <path class="cls-2" d="m18.4,36.55c-2.45,0-4.83-.48-7.06-1.43-2.16-.91-4.1-2.22-5.77-3.89-1.67-1.67-2.98-3.61-3.89-5.77-.95-2.24-1.43-4.61-1.43-7.06s.48-4.83,1.43-7.06c.91-2.16,2.22-4.1,3.89-5.77,1.67-1.67,3.61-2.98,5.77-3.89,2.24-.95,4.61-1.43,7.06-1.43s4.83.48,7.06,1.43c2.16.91,4.1,2.22,5.77,3.89,1.67,1.67,2.98,3.61,3.89,5.77.95,2.24,1.43,4.61,1.43,7.06s-.48,4.83-1.43,7.06c-.91,2.16-2.22,4.1-3.89,5.77-1.67,1.67-3.61,2.98-5.77,3.89-2.24.95-4.61,1.43-7.06,1.43Z"/>
      <path class="cls-3" d="m18.4.5c-4.78,0-9.28,1.86-12.66,5.24S.5,13.62.5,18.4s1.86,9.28,5.24,12.66c3.38,3.38,7.88,5.24,12.66,5.24s9.28-1.86,12.66-5.24,5.24-7.88,5.24-12.66-1.86-9.28-5.24-12.66c-3.38-3.38-7.88-5.24-12.66-5.24M18.4,0C28.56,0,36.8,8.24,36.8,18.4s-8.24,18.4-18.4,18.4S0,28.56,0,18.4,8.24,0,18.4,0Z"/>
    </g>
    <circle id="_타원_46-2" data-name="타원 46-2" class="cls-1" cx="18.38" cy="13.31" r="6.97"/>
    <path id="_패스_325-2" data-name="패스 325-2" class="cls-1" d="m18.56,22.79c8.27,0,14.75,5.24,14.79,5.17-3.21,5.07-8.78,8.16-14.79,8.2-6.22.04-12.02-3.17-15.28-8.47.04-.07,7.01-4.9,15.28-4.9Z"/>
  </g>
</svg>