<svg xmlns="http://www.w3.org/2000/svg" width="30.455" height="30.729" viewBox="0 0 30.455 30.729">
  <defs>
    <style>
      .cls-1 {
        fill: #003091;
      }
    </style>
  </defs>
  <g transform="translate(-164.397 -754.144)">
    <path id="패스_468" data-name="패스 468" class="cls-1" d="M31.454,17.759A13.877,13.877,0,0,1,17.6,31.73H5.263A1.27,1.27,0,0,1,4,30.454V17.989A13.876,13.876,0,0,1,17.833,4,13.8,13.8,0,0,1,31.454,17.759Z" transform="translate(161.897 751.643)"/>
    <path id="패스_468_-_윤곽선" data-name="패스 468 - 윤곽선" class="cls-1" d="M17.728,2.5h.116A15.067,15.067,0,0,1,28.5,7.006a15.4,15.4,0,0,1-4.9,25A15.2,15.2,0,0,1,17.6,33.23H5.263A2.773,2.773,0,0,1,2.5,30.454V17.989A15.377,15.377,0,0,1,17.728,2.5ZM17.6,30.23A12.393,12.393,0,0,0,26.368,9.117,12.086,12.086,0,0,0,17.821,5.5h-.093A12.374,12.374,0,0,0,5.5,17.989V30.23Z" transform="translate(161.897 751.643)"/>
  </g>
</svg>
