<?xml version="1.0" encoding="utf-8"?>
<!-- Generator: Adobe Illustrator 27.2.0, SVG Export Plug-In . SVG Version: 6.00 Build 0)  -->
<svg version="1.1" id="레이어_1" xmlns="http://www.w3.org/2000/svg" xmlns:xlink="http://www.w3.org/1999/xlink" x="0px"
	 y="0px" viewBox="0 0 384 384" style="enable-background:new 0 0 384 384;" xml:space="preserve">
<style type="text/css">
	.st0{fill:#003091;}
	.st1{fill:#003197;}
	.st2{fill:#313131;}
	.st3{clip-path:url(#SVGID_00000075863538740888645250000007016012273797479826_);}
	.st4{fill:#5979BB;}
	.st5{fill:#707070;}
	.st6{fill:#EBC0D0;}
	.st7{fill:#FFFFFF;}
	.st8{fill:#C0D6EB;}
	.st9{fill:#002F92;}
	.st10{fill:#C6C6C6;}
	.st11{clip-path:url(#SVGID_00000013170786611972355860000011557599447537374350_);}
	.st12{clip-path:url(#SVGID_00000104703987262339231760000017706552749263125414_);}
	.st13{clip-path:url(#SVGID_00000002343983643160733230000014005824263816576148_);}
</style>
<g id="그룹_336" transform="translate(-328.5 -762.5)">
	<g id="타원_36">
		<circle class="st9" cx="519.37" cy="954.01" r="183.51"/>
		<path class="st9" d="M519.37,1145.5c-105.59,0-191.48-85.89-191.48-191.48s85.89-191.48,191.48-191.48s191.48,85.89,191.48,191.48
			S624.96,1145.5,519.37,1145.5z M519.37,778.49c-96.79,0-175.53,78.74-175.53,175.53s78.74,175.53,175.53,175.53
			S694.9,1050.8,694.9,954.02S616.16,778.49,519.37,778.49z"/>
	</g>
	<g id="그룹_294" transform="translate(336.604 768.799)">
		<g id="패스_271">
			<path class="st7" d="M185.23,292.15c-8.82,0-15.96-7.14-15.96-15.96V112.8c0-8.82,7.14-15.96,15.96-15.96
				c8.82,0,15.96,7.14,15.96,15.96v163.39C201.18,285.01,194.05,292.15,185.23,292.15z"/>
		</g>
		<g id="패스_272">
			<path class="st7" d="M244.86,177.43c-4.44,0-8.87-1.85-12.03-5.47l-47.17-54.12c-18.68,19.29-50.15,51.69-54.59,55.6
				c-6.58,5.84-16.69,5.22-22.52-1.42c-5.83-6.61-5.19-16.69,1.42-22.52c4.15-3.72,41.93-42.65,64.81-66.34
				c3.12-3.23,7.23-4.99,11.89-4.88c4.47,0.12,8.68,2.1,11.62,5.47l58.59,67.23c5.8,6.65,5.1,16.72-1.54,22.52
				C252.33,176.13,248.59,177.43,244.86,177.43z"/>
		</g>
	</g>
</g>
</svg>
