<?xml version="1.0" encoding="UTF-8"?>
<svg id="_레이어_1" data-name="레이어 1" xmlns="http://www.w3.org/2000/svg" xmlns:xlink="http://www.w3.org/1999/xlink" viewBox="0 0 98 97">
  <defs>
    <style>
      .cls-1 {
        fill: none;
      }

      .cls-2 {
        clip-path: url(#clippath);
      }

      .cls-3 {
        fill: #fff;
      }

      .cls-4 {
        fill: #040000;
        stroke: #040000;
        stroke-miterlimit: 10;
        stroke-width: 8px;
      }
    </style>
    <clipPath id="clippath">
      <rect class="cls-1" x="1.77" y="1.53" width="94.47" height="94.47"/>
    </clipPath>
  </defs>
  <g id="_그룹_263" data-name="그룹 263">
    <g class="cls-2">
      <g id="_그룹_241" data-name="그룹 241">
        <path id="_패스_248" data-name="패스 248" class="cls-4" d="m91.32,48.63c.17,23.97-19.13,43.53-43.1,43.7-.07,0-.15,0-.22,0H9.4c-2.19-.01-3.96-1.8-3.95-3.99,0,0,0,0,0,0v-38.99C5.45,25.21,24.81,5.42,48.71,5.6c23.57.3,42.54,19.46,42.61,43.03Z"/>
        <path id="_패스_249" data-name="패스 249" class="cls-3" d="m36.78,49.3c0,3.28-2.66,5.95-5.95,5.95-3.28,0-5.95-2.66-5.95-5.95s2.66-5.95,5.95-5.95h0c3.28,0,5.95,2.66,5.95,5.95"/>
        <path id="_패스_250" data-name="패스 250" class="cls-3" d="m54.95,49.3c0,3.28-2.66,5.95-5.95,5.95-3.28,0-5.95-2.66-5.95-5.95,0-3.28,2.66-5.95,5.95-5.95h0c3.28,0,5.95,2.66,5.95,5.95"/>
        <path id="_패스_251" data-name="패스 251" class="cls-3" d="m73.13,49.3c0,3.28-2.66,5.95-5.95,5.95-3.28,0-5.95-2.66-5.95-5.95s2.66-5.95,5.95-5.95h0c3.28,0,5.95,2.66,5.95,5.95"/>
      </g>
    </g>
  </g>
</svg>