<?xml version="1.0" encoding="utf-8"?>
<!-- Generator: Adobe Illustrator 27.2.0, SVG Export Plug-In . SVG Version: 6.00 Build 0)  -->
<svg version="1.1" id="레이어_1" xmlns="http://www.w3.org/2000/svg" xmlns:xlink="http://www.w3.org/1999/xlink" x="0px"
	 y="0px" viewBox="0 0 384 384" style="enable-background:new 0 0 384 384;" xml:space="preserve">
<style type="text/css">
	.st0{fill:#003091;}
	.st1{fill:#003197;}
	.st2{fill:#313131;}
	.st3{clip-path:url(#SVGID_00000139283557418582312750000001789614435776511626_);}
	.st4{fill:#5979BB;}
	.st5{fill:#707070;}
	.st6{fill:#EBC0D0;}
	.st7{fill:#FFFFFF;}
	.st8{fill:#C0D6EB;}
	.st9{fill:#002F92;}
	.st10{fill:#C6C6C6;}
	.st11{clip-path:url(#SVGID_00000131327845431602879750000004000214011088738176_);}
	.st12{clip-path:url(#SVGID_00000072273312057803844390000004646904321666971059_);}
	.st13{clip-path:url(#SVGID_00000159466750127952642400000008728033621698766727_);}
</style>
<g id="그룹_341" transform="translate(-8 -760)">
	<g id="패스_331">
		<path class="st9" d="M198.71,1141.57c-104.93,0-190.29-85.36-190.29-190.29S93.79,761,198.71,761S389,846.36,389,951.29
			S303.64,1141.57,198.71,1141.57z M198.71,791.45c-88.13,0-159.84,71.7-159.84,159.84s71.71,159.84,159.84,159.84
			s159.84-71.7,159.84-159.84S286.85,791.45,198.71,791.45z"/>
	</g>
	<g id="그룹_152_00000021826976606689084600000006677661388009211583_" transform="translate(15.426 767.427)">
		<g id="패스_138_00000170246337373732539290000017872061858758651572_">
			<path class="st9" d="M260.52,199.08H106.05c-8.41,0-15.22-6.81-15.22-15.22s6.82-15.22,15.22-15.22h154.47
				c8.41,0,15.22,6.81,15.22,15.22S268.93,199.08,260.52,199.08z"/>
		</g>
		<g id="패스_140_00000062182891059187575620000008662820372468427170_">
			<path class="st9" d="M183.27,276.3c-8.41,0-15.22-6.81-15.22-15.22V106.63c0-8.41,6.82-15.22,15.22-15.22
				c8.41,0,15.22,6.81,15.22,15.22v154.44C198.5,269.49,191.68,276.3,183.27,276.3z"/>
		</g>
	</g>
</g>
</svg>
