<?xml version="1.0" encoding="UTF-8"?>
<svg id="_레이어_1" data-name="레이어 1" xmlns="http://www.w3.org/2000/svg" xmlns:xlink="http://www.w3.org/1999/xlink" viewBox="0 0 354.32 270.84">
  <defs>
    <style>
      .cls-1 {
        fill: none;
      }

      .cls-2 {
        clip-path: url(#clippath);
      }

      .cls-3 {
        fill: #0e3481;
      }
    </style>
    <clipPath id="clippath">
      <rect class="cls-1" x="4.84" y="1.52" width="346.48" height="268.32"/>
    </clipPath>
  </defs>
  <g id="_마스크_그룹_40" data-name="마스크 그룹 40">
    <g id="_그룹_307" data-name="그룹 307">
      <g class="cls-2">
        <g id="_그룹_306" data-name="그룹 306">
          <path id="_패스_287" data-name="패스 287" class="cls-3" d="m351.32,198.47c-2.66,5.57-7.17,7.24-13.17,7.13-14.77-.27-29.55-.08-44.32-.1-1.35.06-2.7-.02-4.04-.24-2.56-.53-4.2-2.47-3.74-4.81.35-1.75,2.05-3.47,3.58-4.66.88-.69,2.6-.38,3.95-.39,14.44-.02,28.87-.02,43.3-.01h4.11v-119.22H65.26v119.23h4.73c64.51,0,129.01,0,193.52.01,1.57,0,40.5-.04,42.02.29,2.53.55-10.94,2.4-11.02,4.9s20.26,4.24,17.7,4.71c-1.21.22-46.73.2-47.96.2-65.75,0-131.5,0-197.24,0-8.87,0-12.18-3.35-12.19-12.27v-7.55h-15.56v74.12c0,7.3-2.66,9.96-9.98,9.99-5.19.02-10.38.07-15.56-.02-6.07-.11-8.87-2.97-8.87-9-.01-83.37-.01-166.73,0-250.1C4.84,4.46,7.64,1.65,13.95,1.57c5.41-.07,10.83-.07,16.24,0,6.23.09,9.03,2.96,9.06,9.2.03,6.98.07,13.95-.03,20.93-.05,3.45-2.12,5.5-5.13,5.48-3.03-.02-4.86-2.05-4.97-5.57-.04-1.35,0-2.7-.01-4.05-.02-4.95-.05-9.9-.08-14.84,0-.2-.17-.39-.36-.81h-13.48v247.55h13.92V59.08c0-1.12-.03-26.35.02-27.47.16-3.26,2.02.9,4.94.87,2.88-.03,4.98-6.19,5.13-3,.15,3.14.05,32.39.05,35.54v20.68h15.56c0-3.09-.03-6.09,0-9.08.08-6.89,3.7-10.55,10.64-10.77.79-.02,1.58,0,2.37,0,90.11,0,180.21-.03,270.32-.08,5.99,0,10.52,1.53,13.16,7.12v125.58Zm-311.84-23.42h15.12v-78.86h-15.12v78.86Z"/>
          <path id="_패스_288" data-name="패스 288" class="cls-3" d="m219.65,161.65c-3.39.99-4.17-.42-5.74-1.31-.59-.33-.94-1.47-1.27-2.29q-2.55-6.25-9.41-6.26c-1.24.08-2.48.07-3.71-.03-5.74-.88-9.81.31-11.11,6.96-.62,3.18-4.01,4.28-6.75,3.11-2.49-1.06-3.62-3.84-2.49-6.83,5.27-13.96,10.58-27.9,15.94-41.82.79-2.45,3.13-4.07,5.71-3.94,2.46-.14,4.72,1.35,5.54,3.68,5.42,14.14,10.78,28.3,16.1,42.48.2.52,1.06,5.13-2.8,6.25m-18.88-34.9l-5.55,14.7h11.1l-5.54-14.7"/>
          <path id="_패스_289" data-name="패스 289" class="cls-3" d="m310,162.23c-6.61.04-12.97-2.56-17.67-7.21-2.48-2.45-2.74-5.31-.81-7.47,2.08-2.33,5.03-2.37,7.72.15,3.25,3.22,7.79,4.8,12.34,4.29,3.33-.32,6.26-2.51,6.49-4.99.3-3.22-2.12-4.54-4.51-5.59-4.01-1.77-8.09-3.4-12.18-4.97-5.42-2.08-8.36-6.1-8.7-11.73-.34-5.47,2.12-9.82,6.78-12.75,7.99-5.03,18.94-2.79,25.79,3.04,2.15,1.83,2.29,4.33.57,6.68-1.59,2.17-4.22,2.28-6.98,1.1-3.24-1.41-6.6-2.5-10.05-3.26-1.31-.28-3.14.52-4.35,1.38-2.58,1.81-2.2,4.82.69,6.09,3.81,1.67,7.72,3.11,11.56,4.71,8.5,3.54,12.86,10.19,11.41,17.34-1.57,7.73-8.9,13.18-17.75,13.2-.11,0-.23,0-.34,0"/>
          <path id="_패스_290" data-name="패스 290" class="cls-3" d="m256.79,162.22c-6.48-.05-12.68-2.65-17.25-7.24-2.47-2.45-2.71-5.32-.76-7.47,2.09-2.3,5.02-2.32,7.72.21,3.26,3.21,7.8,4.78,12.35,4.26,3.33-.32,6.24-2.55,6.45-5.03.27-3.22-2.17-4.52-4.55-5.57-4.01-1.77-8.09-3.38-12.18-4.96-5.41-2.1-8.34-6.13-8.66-11.76-.31-5.47,2.14-9.81,6.81-12.73,8-5.01,19.01-2.74,25.78,3.09,2.15,1.85,2.32,4.4.5,6.66-1.92,2.39-4.25,2.23-6.97,1.06-3.24-1.41-6.6-2.49-10.05-3.24-1.31-.28-3.14.54-4.34,1.4-2.55,1.83-2.14,4.81.76,6.08,3.81,1.66,7.72,3.1,11.56,4.7,8.49,3.54,12.83,10.2,11.36,17.37-1.57,7.7-8.95,13.16-17.79,13.16h-.74"/>
          <path id="_패스_291" data-name="패스 291" class="cls-3" d="m104.14,162.22c-14.64,0-26.5-11.88-26.5-26.52,0-7.96,3.58-15.5,9.75-20.53,8.58-6.92,20.5-7.91,30.1-2.5,2.71,1.54,4.51,3.5,3.56,6.8-.92,3.18-4.47,4.37-7.76,2.48-4.06-2.56-9.01-3.27-13.63-1.96-8.68,2.44-13.75,11.46-11.3,20.14,2.3,8.18,10.49,13.23,18.83,11.61,2.35-.68,4.52-1.89,6.35-3.52,2.95-2.37,5.6-2.78,7.79-.64,2.22,2.16,1.95,5.26-.75,8.02-4.3,4.44-10.27,6.84-16.44,6.62"/>
          <path id="_패스_292" data-name="패스 292" class="cls-3" d="m148.94,152.12c3.46,0,6.39-.08,9.31.02,3.71.13,5.79,2.14,5.66,5.28-.12,3-2.17,4.75-5.77,4.78-4.62.03-9.24,0-13.87-.08-3.61-.06-5.44-1.79-5.46-5.38-.06-13.95-.06-27.89,0-41.84,0-3.53,1.89-5.58,4.9-5.64,3.14-.07,5.18,2.06,5.2,5.73.06,11.02.02,22.04.02,33.06v4.06"/>
          <path id="_패스_293" data-name="패스 293" class="cls-3" d="m92.06,93.46c-.02,3.67-2.96,6.65-6.63,6.72-3.68.02-6.67-2.95-6.69-6.63-.02-3.68,2.95-6.67,6.63-6.69,3.67-.02,6.66,2.93,6.69,6.6"/>
          <path id="_패스_294" data-name="패스 294" class="cls-3" d="m320.68,86.85c3.68-.04,6.69,2.92,6.73,6.6s-2.92,6.69-6.6,6.73c-3.68.04-6.69-2.92-6.73-6.6,0-.02,0-.03,0-.05-.04-3.65,2.88-6.64,6.53-6.68.02,0,.05,0,.07,0"/>
          <path id="_패스_295" data-name="패스 295" class="cls-3" d="m92.06,177.97c-.1,3.67-3.13,6.58-6.81,6.52-3.68-.04-6.63-3.05-6.6-6.73.04-3.68,3.05-6.63,6.73-6.6.04,0,.08,0,.12,0,3.67.11,6.57,3.13,6.55,6.8"/>
          <path id="_패스_296" data-name="패스 296" class="cls-3" d="m320.72,171.17c3.68-.09,6.74,2.82,6.83,6.5.09,3.68-2.82,6.74-6.5,6.83-3.68.17-6.79-2.68-6.96-6.35-.17-3.68,2.68-6.79,6.35-6.96.09,0,.19,0,.28,0"/>
        </g>
      </g>
    </g>
  </g>
</svg>