<svg xmlns="http://www.w3.org/2000/svg" xmlns:xlink="http://www.w3.org/1999/xlink" width="100%" height="100%"
  viewBox="0 0 31.751 31.375">
  <defs>
    <style>
      .cls-1 {
        fill: #003091;
      }

      .cls-2 {
        clip-path: url(#clip-path);
      }
    </style>
    <clipPath id="clip-path">
      <rect id="사각형_473" data-name="사각형 473" class="cls-1" width="31.751" height="31.375" transform="translate(0 0)" />
    </clipPath>
  </defs>
  <g id="그룹_625" data-name="그룹 625" transform="translate(0 0)">
    <g id="그룹_619" data-name="그룹 619" class="cls-2" transform="translate(0 0)">
      <path id="패스_484" data-name="패스 484" class="cls-1"
        d="M16.25,44.392c-.795,0-1.589.012-2.384.027a19.954,19.954,0,0,0-2.417.177C5.069,45.5.126,50.508,0,56.138A1.161,1.161,0,0,0,.782,57.4H30.97a1.13,1.13,0,0,0,.779-1.235,10.487,10.487,0,0,0-1.56-5.225c-2.6-4.108-6.586-6.349-12.022-6.523-.639-.021-1.278-.029-1.917-.029"
        transform="translate(-0.001 -26.028)" />
      <path id="패스_485" data-name="패스 485" class="cls-1"
        d="M21.745,0a8.352,8.352,0,0,0-8.4,8.272,8.354,8.354,0,0,0,8.386,8.272h.016a8.352,8.352,0,0,0,8.4-8.273A8.35,8.35,0,0,0,21.76,0Z"
        transform="translate(-5.718 1)" />
    </g>
  </g>
</svg>