<svg xmlns="http://www.w3.org/2000/svg" xmlns:xlink="http://www.w3.org/1999/xlink" width="100%" height="100%"
  viewBox="0 0 31.751 31.375">
  <defs>
    <style>
      .cls-1 {
        fill: #9ac;
      }

      .cls-2 {
        clip-path: url(#clip-path);
      }
    </style>
    <clipPath id="clip-path">
      <rect id="사각형_473" data-name="사각형 473" class="cls-1" width="31.751" height="31.375" transform="translate(0 0)" />
    </clipPath>
  </defs>
  <g id="그룹_619" data-name="그룹 619" class="cls-2">
    <path id="패스_484" data-name="패스 484" class="cls-1"
      d="M16.25,47.288c.654,0,1.241.009,1.794.027,4.206.134,7.137,1.731,9.226,5.026a7.091,7.091,0,0,1,.9,2.166H3.569a10.126,10.126,0,0,1,8.418-7.054,16.114,16.114,0,0,1,1.953-.139c.689-.014,1.5-.027,2.31-.027m0-2.9c-.795,0-1.589.012-2.384.027a19.954,19.954,0,0,0-2.417.177C5.069,45.5.126,50.508,0,56.138A1.161,1.161,0,0,0,.782,57.4H30.97a1.13,1.13,0,0,0,.779-1.235,10.487,10.487,0,0,0-1.56-5.225c-2.6-4.108-6.586-6.349-12.022-6.523-.639-.021-1.278-.029-1.917-.029"
      transform="translate(-0.001 -26.028)" />
    <path id="패스_485" data-name="패스 485" class="cls-1"
      d="M21.745,0l.01,2.9A5.427,5.427,0,0,1,27.2,8.272a5.3,5.3,0,0,1-1.6,3.8,5.472,5.472,0,0,1-9.317-3.8A5.426,5.426,0,0,1,21.745,2.9Zm0,0a8.352,8.352,0,0,0-8.4,8.272,8.354,8.354,0,0,0,8.386,8.272h.016a8.352,8.352,0,0,0,8.4-8.273A8.35,8.35,0,0,0,21.76,0Z"
      transform="translate(-5.718 1)" />
  </g>
</svg>