<?xml version="1.0" encoding="UTF-8"?>
<svg id="_레이어_1" data-name="레이어 1" xmlns="http://www.w3.org/2000/svg" xmlns:xlink="http://www.w3.org/1999/xlink" viewBox="0 0 103.69 97">
  <defs>
    <style>
      .cls-1 {
        fill: none;
      }

      .cls-2 {
        clip-path: url(#clippath);
      }

      .cls-3 {
        fill: #040000;
      }

      .cls-4 {
        opacity: .77;
      }
    </style>
    <clipPath id="clippath">
      <rect class="cls-1" x="10.79" y="6.77" width="82.11" height="82.86"/>
    </clipPath>
  </defs>
  <g id="_그룹_22" data-name="그룹 22" class="cls-4">
    <g class="cls-2">
      <g id="_그룹_21" data-name="그룹 21">
        <path id="_패스_31" data-name="패스 31" class="cls-3" d="m74.7,58.13c-1.16-1.14-2.71-1.78-4.34-1.78h0c-1.11,0-2.2.3-3.16.84-1.23.77-2.36,1.69-3.38,2.72l-.08.08c-1.07,1.01-2.08,2.05-3.14,3.15-.45.46-.91.94-1.37,1.41l-.46.46-.57-.32c-.39-.22-.79-.43-1.17-.64-.85-.46-1.65-.89-2.44-1.4-3.97-2.59-7.59-5.67-10.78-9.17-3.24-3.33-5.98-7.11-8.14-11.22-.43-.71-.27-1.64.37-2.16.41-.41.82-.82,1.23-1.23l.03-.03c1.58-1.57,3.22-3.2,4.7-4.89,2.29-2.55,2.28-6.42-.02-8.96-3.97-4.3-7.53-7.93-10.9-11.12-1.32-1.4-3.14-2.23-5.06-2.32v.12h0v-.12h0c-1.89.08-3.69.86-5.05,2.18-1.81,1.58-3.52,3.37-5.18,5.11-.53.56-1.08,1.14-1.63,1.7-1.56,1.61-2.61,3.64-3.02,5.84-.12.62-.19,1.26-.27,1.94-.03.28-.06.58-.1.88v1.05c.06.44.1.88.15,1.31.11,1,.22,1.95.4,2.89.88,4.31,2.36,8.48,4.39,12.39,3.46,6.89,7.81,13.3,12.96,19.04,5.17,5.7,11.07,10.69,17.57,14.82,5.2,3.49,10.91,6.14,16.93,7.84,1.14.28,2.29.5,3.45.67.56.09,1.14.18,1.71.29.16.03.31.07.46.12l.03-.12v.13s2.85,0,2.85,0h.05c.17-.07.35-.12.53-.15,2.46-.25,4.76-1.3,6.55-3,3.04-2.96,5.29-5.31,7.29-7.6,1.14-1.29,1.76-2.94,1.76-4.66-.02-1.7-.67-3.34-1.84-4.58-3.3-3.53-6.9-7.19-11.35-11.51M37.62,24.71l1.27,1.28c.2.21.41.43.6.67,1.54,1.54,1.54,4.03,0,5.57-.03.03-.06.06-.09.08-1.83,1.96-3.74,3.83-5.53,5.57-1.22,1.18-1.72,1.86-1.84,2.5s.09,1.44.78,2.96c1.79,3.69,4.09,7.1,6.85,10.13,3.81,4.54,8.27,8.5,13.23,11.75,1.5.94,3.06,1.8,4.65,2.59.39.21.83.32,1.28.33h0c.8-.04,1.55-.41,2.08-1.01,1.27-1.25,2.53-2.53,3.76-3.77.62-.63,1.25-1.25,1.87-1.88l.02-.02c.25-.25.51-.51.79-.76.78-.74,1.81-1.17,2.88-1.21h0c1.12.04,2.18.52,2.94,1.35,1.3,1.27,2.59,2.58,3.84,3.85.52.53,1.04,1.06,1.56,1.58.42.42.84.85,1.26,1.27l.04.04c1.04,1.04,2.11,2.12,3.16,3.2,2.3,2.37,2.3,4.68,0,7.07-1.07,1.11-2.15,2.22-3.2,3.29-.81.83-1.62,1.66-2.43,2.49-1.86,1.94-4.46,3-7.14,2.91h0c-.4,0-.82-.02-1.24-.06-4.92-.59-9.68-2.09-14.04-4.43-6.97-3.45-13.39-7.91-19.06-13.23-5.65-5.35-10.55-11.44-14.57-18.1-3.22-5.08-5.55-10.67-6.89-16.53-.21-.97-.33-1.96-.44-2.93-.05-.42-.1-.86-.16-1.28v-.11c-.12-3.07,1.12-6.03,3.38-8.11,1.08-1.04,2.16-2.13,3.19-3.18.72-.73,1.46-1.48,2.2-2.22.87-.98,2.09-1.57,3.39-1.64h0c.67,0,1.32.18,1.9.52h0c.52.3,1,.67,1.42,1.1,2.8,2.82,5.72,5.76,8.28,8.37"/>
        <path id="_패스_32" data-name="패스 32" class="cls-3" d="m92.85,43.1c-.73-4.44-2.17-8.74-4.27-12.73-2.93-5.6-6.96-10.55-11.85-14.54-4.94-3.91-10.65-6.74-16.75-8.33-.83-.22-1.67-.39-2.48-.55-.32-.06-.63-.12-.92-.19h-.03c-.78-.03-1.48.5-1.65,1.26-.15.81.37,1.6,1.18,1.78.56.14,1.15.27,1.72.39.64.14,1.3.28,1.96.45,12.67,3.43,22.97,12.66,27.75,24.88.66,1.86,1.23,3.76,1.68,5.69.21.83.43,1.69.67,2.52.25.89.8,1.41,1.5,1.41.11,0,.22-.01.33-.04.94-.2,1.35-.91,1.15-2.01"/>
        <path id="_패스_33" data-name="패스 33" class="cls-3" d="m55.67,25.21c8.67,1.84,14.7,6.98,17.92,15.29.31.86.57,1.74.76,2.63.14.57.27,1.1.43,1.63.18.65.77,1.11,1.44,1.12h0c.12,0,.24-.01.35-.04.82-.21,1.33-1.03,1.15-1.86-.12-.66-.23-1.2-.37-1.7-2.1-8.98-8.7-16.23-17.44-19.15-.94-.32-1.89-.59-2.86-.79-.32-.07-.63-.15-.91-.22h-.03c-1,.02-1.62.38-1.84,1.06-.14.39-.11.82.09,1.19.29.45.77.76,1.3.85"/>
      </g>
    </g>
  </g>
</svg>