<?xml version="1.0" encoding="UTF-8"?>
<svg id="_레이어_1" data-name="레이어 1" xmlns="http://www.w3.org/2000/svg" xmlns:xlink="http://www.w3.org/1999/xlink" viewBox="0 0 32.14 30">
  <defs>
    <style>
      .cls-1 {
        fill: none;
      }

      .cls-2 {
        clip-path: url(#clippath);
      }

      .cls-3 {
        fill: #313131;
      }
    </style>
    <clipPath id="clippath">
      <rect class="cls-1" y="1.33" width="32.14" height="27.34"/>
    </clipPath>
  </defs>
  <g id="_그룹_378" data-name="그룹 378">
    <g class="cls-2">
      <g id="_그룹_377" data-name="그룹 377">
        <path id="_패스_358" data-name="패스 358" class="cls-3" d="m0,19.11v-7.37s.04-.1.06-.15c.46-1.87,2.09-3.22,4.01-3.33.49-.06.99-.05,1.52-.07v-.29c0-.87,0-1.74,0-2.61.14-1.95,1.61-3.54,3.54-3.84.2-.04.4-.08.6-.12h12.68s.07.03.11.04c2.45.37,4.03,1.97,4.03,4.08v2.77h.93c1.96-.07,3.74,1.1,4.48,2.91.07.2.12.41.18.61v7.37s-.04.09-.06.15c-.46,1.87-2.09,3.22-4.02,3.33-.49.06-.99.05-1.51.07v3.5c0,1.47-1.21,2.51-2.94,2.51h-15.09c-1.73,0-2.94-1.03-2.94-2.5v-3.53h-.89c-2,.09-3.83-1.12-4.55-2.98-.05-.18-.1-.36-.15-.54m5.57-.75c-.22,0-.4,0-.59,0-.45.01-.83-.31-.9-.75,0-.43.33-.79.76-.83.13-.02.27-.02.41-.02h21.87c.44-.07.86.23.93.67s-.23.86-.67.93c-.08.01-.17.01-.25,0-.18,0-.37,0-.54,0v2.67h.72c1.75,0,2.96-1.03,2.96-2.51v-6.19c0-1.47-1.21-2.51-2.94-2.51H4.82c-1.71,0-2.93,1.03-2.93,2.48,0,2.08,0,4.16,0,6.25,0,.24.03.48.11.71.39,1.19,1.65,1.98,3.58,1.74v-2.64Zm1.91.01v7.76c0,.62.37.93,1.1.93h15c.75,0,1.11-.31,1.11-.95v-7.47c0-.09,0-.17-.01-.27H7.47Zm.05-10.17h17.13c0-1.05.06-2.08-.02-3.11-.22-1.31-1.39-2.24-2.72-2.16-3.9-.01-7.8-.01-11.7,0-1.25-.09-2.39.75-2.67,1.97-.07,1.1-.08,2.2-.03,3.3"/>
        <path id="_패스_359" data-name="패스 359" class="cls-3" d="m6.51,13.24h-1.44c-.58,0-.99-.35-.99-.81.05-.49.49-.84.97-.79,0,0,0,0,0,0,.98,0,1.96,0,2.94,0,.44-.09.87.2.96.64s-.2.87-.64.96c-.1.02-.2.02-.3,0h-1.5"/>
        <path id="_패스_360" data-name="패스 360" class="cls-3" d="m16.07,20.18h2.41c.61,0,1.03.33,1.04.8s-.42.8-1.03.8h-4.86c-.6,0-1.03-.34-1.02-.81s.43-.79,1.01-.79h2.44"/>
        <path id="_패스_361" data-name="패스 361" class="cls-3" d="m16.07,23.6h2.41c.61,0,1.03.33,1.04.79s-.42.81-1.05.81h-4.79c-.63,0-1.06-.33-1.06-.8s.43-.79,1.07-.8h2.38"/>
      </g>
    </g>
  </g>
</svg>