<?xml version="1.0" encoding="UTF-8"?>
<svg id="_레이어_1" data-name="레이어 1" xmlns="http://www.w3.org/2000/svg" viewBox="0 0 250 250">
  <defs>
    <style>
      .cls-1 {
        fill: #003091;
      }

      .cls-2 {
        fill: #fff;
      }

      .cls-3 {
        isolation: isolate;
      }
    </style>
  </defs>
  <g id="_패스_465" data-name="패스 465">
    <path class="cls-1" d="m125,0c69.04,0,125,55.96,125,125s-55.96,125-125,125S0,194.04,0,125,55.96,0,125,0Z"/>
  </g>
  <g id="D" class="cls-3">
    <g class="cls-3">
      <path class="cls-2" d="m174.22,127.5v8.97c0,9.41-.76,17.23-2.29,23.46-1.54,6.22-4.89,11.92-10.07,17.05-3.95,3.93-8.69,6.85-14.2,8.72s-11.5,2.82-17.96,2.82h-43.93v-121.04h43.93c6.51,0,12.5.93,17.96,2.78,5.45,1.85,10.19,4.76,14.2,8.75,5.18,5.1,8.53,10.66,10.07,16.69,1.53,6.03,2.29,13.62,2.29,22.75v9.04Zm-23.8,0c0-6.46-.11-11.58-.33-15.35s-.71-6.95-1.46-9.55c-.75-2.59-1.85-4.78-3.3-6.55-4.07-4.98-10-7.47-17.79-7.47h-17.96v78.87h17.96c3.95,0,7.38-.63,10.27-1.86,2.9-1.25,5.4-3.12,7.52-5.61,1.11-1.33,2-2.95,2.67-4.85.67-1.92,1.16-3.95,1.46-6.11.31-2.16.55-4.85.71-8.1.17-3.23.25-7.7.25-13.41Z"/>
    </g>
  </g>
</svg>