<?xml version="1.0" encoding="UTF-8"?>
<svg id="_레이어_1" data-name="레이어 1" xmlns="http://www.w3.org/2000/svg" xmlns:xlink="http://www.w3.org/1999/xlink" viewBox="0 0 30 30">
  <defs>
    <style>
      .cls-1 {
        fill: none;
      }

      .cls-2 {
        clip-path: url(#clippath);
      }

      .cls-3 {
        fill: #313131;
      }
    </style>
    <clipPath id="clippath">
      <rect class="cls-1" x=".33" y=".34" width="29.34" height="29.33"/>
    </clipPath>
  </defs>
  <g id="_그룹_402" data-name="그룹 402">
    <g class="cls-2">
      <g id="_그룹_401" data-name="그룹 401">
        <path id="_패스_370" data-name="패스 370" class="cls-3" d="m14.48.34h.46c.26.08.52.17.77.28,4.24,2.14,8.48,4.28,12.72,6.43.8.36,1.3,1.17,1.25,2.04,0,3.94,0,7.89,0,11.83.05.87-.45,1.69-1.25,2.05-4.23,2.14-8.46,4.28-12.68,6.43-.67.37-1.49.36-2.16-.02-3.91-2.09-7.83-4.16-11.75-6.23-.74-.3-1.3-.94-1.51-1.71v-12.84c.21-.77.77-1.4,1.51-1.7,3.74-1.96,7.46-3.95,11.19-5.92.47-.25.97-.42,1.46-.63m1.05,27.22c.12-.05.2-.08.28-.12,3.93-1.99,7.86-3.98,11.79-5.97.23-.09.38-.33.36-.58,0-3.65,0-7.29,0-10.94,0-.08,0-.16-.01-.26-.06.02-.1.03-.13.05-1.58.78-3.16,1.57-4.74,2.35-.12.05-.2.18-.17.31v3.38c0,.11,0,.23-.02.34-.08.46-.52.78-.98.7-.4-.07-.7-.41-.71-.82,0-.22,0-.44,0-.66v-2.3c-.14.06-.24.1-.34.15-1.67.83-3.34,1.67-5.02,2.49-.2.07-.32.27-.29.48,0,3.69.01,7.37,0,11.06v.34ZM2.05,9.7v.3c0,3.63,0,7.26,0,10.88-.02.26.12.5.37.61,3.7,1.96,7.4,3.92,11.09,5.88.09.05.18.09.3.15,0-.12.02-.2.02-.28,0-3.71,0-7.43,0-11.14.02-.17-.08-.34-.24-.4-3.76-1.95-7.53-3.91-11.29-5.88-.07-.03-.13-.06-.25-.11m18.26,1.83c-.08-.05-.15-.1-.21-.13-3.78-2-7.56-4.01-11.35-6.01-.14-.08-.31-.08-.45.02-1.34.72-2.67,1.43-4.01,2.13l-1.29.69c.1.06.17.1.24.14,3.74,1.95,7.49,3.91,11.23,5.86.14.08.31.08.45,0,1.71-.86,3.43-1.71,5.14-2.56.07-.04.15-.08.25-.13m6.62-3.29c-.07-.05-.1-.07-.14-.09-3.95-2-7.89-4-11.84-6-.18-.1-.39-.09-.56.02-1.26.68-2.53,1.34-3.79,2.01-.06.04-.12.08-.2.13.08.04.13.08.19.11,3.81,2.02,7.62,4.03,11.43,6.05.13.08.29.08.42,0,1.23-.62,2.47-1.24,3.71-1.85l.77-.39"/>
      </g>
    </g>
  </g>
</svg>