<?xml version="1.0" encoding="UTF-8"?>
<svg id="_레이어_1" data-name="레이어 1" xmlns="http://www.w3.org/2000/svg" xmlns:xlink="http://www.w3.org/1999/xlink" viewBox="0 0 242.49 267.49">
  <defs>
    <style>
      .cls-1 {
        fill: none;
      }

      .cls-2 {
        clip-path: url(#clippath);
      }

      .cls-3 {
        fill: #0e3481;
      }

      .cls-4 {
        clip-path: url(#clippath-1);
      }
    </style>
    <clipPath id="clippath">
      <rect id="_사각형_231-2" data-name="사각형 231-2" class="cls-1" x="-194.36" y="-28.93" width="430" height="274" rx="71" ry="71"/>
    </clipPath>
    <clipPath id="clippath-1">
      <rect class="cls-1" x="13.13" y="14.34" width="230.74" height="230.76"/>
    </clipPath>
  </defs>
  <g class="cls-2">
    <g class="cls-4">
      <g id="_그룹_304" data-name="그룹 304">
        <path id="_패스_273" data-name="패스 273" class="cls-3" d="m233.76,69.21c1.64,0,3.13.04,4.62-.01,2.31-.09,3.57-1.24,3.62-3.54.08-4.45.1-8.91,0-13.36-.06-2.56-1.48-3.6-4.59-3.6-10.82-.01-21.63-.02-32.45,0h-7.12v-11.98c1.38,0,2.79.03,4.19,0,2.69-.07,3.84-1.12,3.87-3.72.05-4.37.05-8.75,0-13.13-.03-2.32-1.21-3.49-3.5-3.68-.63-.05-1.27-.02-1.91-.02H56.6c-4.77,0-5.52.75-5.52,5.52,0,3.66-.03,7.32,0,10.98.03,2.95,1.1,3.99,4.04,4.05,1.33.02,2.66,0,4.11,0v11.98H19.92c-3.92,0-4.93,1.03-4.94,4.96,0,3.74-.02,7.48,0,11.22.02,3.21,1.12,4.3,4.28,4.35,1.26.02,2.52,0,3.97,0v153.54c-1.57,0-3.06-.04-4.54,0-2.33.08-3.62,1.21-3.67,3.49-.09,4.45-.09,8.91,0,13.37.04,2.3,1.29,3.48,3.57,3.66.71.06,1.43.02,2.15.02h215.49c5.08,0,5.83-.74,5.83-5.75,0-3.5.02-7,0-10.5-.03-3.17-1.15-4.26-4.33-4.3-1.26-.02-2.51,0-3.93,0V69.21ZM66.21,199.34V36.89h124.58v162.4h-13.67v-67.83c0-4.13-.94-5.08-5.02-5.08-29.03,0-58.06,0-87.1,0-4.22,0-5.11.91-5.11,5.22v67.73h-13.68ZM197.63,69.39h29.07v153.26h-21.75c-2.12-5.93-4.31-11.81-6.31-17.75-.62-1.79-.94-3.66-.97-5.55-.05-42.24-.07-84.47-.04-126.71v-3.25m-138.36-.06c.04.91.09,1.54.09,2.17,0,43.03,0,86.07-.01,129.1.01.95-.13,1.89-.43,2.79-2.07,5.92-4.24,11.81-6.29,17.74-.23,1.11-1.3,1.83-2.41,1.65-6.12-.07-12.25-.03-18.37-.04-.52-.03-1.04-.1-1.55-.19V69.33h28.97Zm111.17,63.85v2.75c0,15.76-.47,31.53.15,47.26.51,12.89-1.21,25.1-6.57,36.82-1.37,3-1.51,3.26-4.99,2.3v-59.86c0-3.81-.99-4.82-4.79-4.83-17.1-.01-34.21-.01-51.31,0-3.96,0-4.94.99-4.94,4.93,0,19.1,0,38.19,0,57.29v2.72q-3.93.35-5.09-2.87c-1.88-5.23-3.79-10.46-5.59-15.71-.45-1.26-.68-2.59-.71-3.93-.04-21.48-.05-42.97-.03-64.45,0-.77.07-1.54.11-2.42h83.75ZM21.75,229.64h213.41v6.77H21.75v-6.77Zm110.22-65.13h20.18v58.14h-20.18v-58.14Zm-27.22-.04h20.26v58.15h-20.26v-58.15ZM57.88,23h141.16v6.88H57.88v-6.88Zm112.31,199.62c1.24-3.48,2.4-6.74,3.57-9.98.75-2.08.97-4.98,2.46-6.01,1.59-1.1,4.4-.49,6.68-.51,2.93-.03,6.64-1.01,8.59.39,2.03,1.47,2.4,5.28,3.45,8.08.98,2.63,1.9,5.28,2.89,8.04h-27.64Zm-83.4-.04h-27.59c1.89-5.28,3.65-10.36,5.57-15.38.46-.64,1.19-1.03,1.97-1.05,4.13-.1,8.26.03,12.38-.09,1.21-.17,2.33.67,2.5,1.87.86,2.64,1.85,5.23,2.78,7.85.78,2.21,1.55,4.43,2.38,6.8M197.77,55.5h37.4v6.9h-37.4v-6.9Zm-138.54,6.85H21.8v-6.85h37.43v6.85Z"/>
        <path id="_패스_274" data-name="패스 274" class="cls-3" d="m19.54,245.11c.2,0,.4,0,.61,0h.57s215.48,0,215.48,0c6.06,0,7.63-1.55,7.63-7.56v-3.05c.01-2.49.02-4.98,0-7.47-.04-4.16-1.92-6.04-6.12-6.09-.7-.01-1.41,0-2.15,0V71.02c.99,0,1.94.01,2.88-.02,3.29-.12,5.3-2.11,5.36-5.31.09-4.89.09-9.29,0-13.44-.08-3.56-2.23-5.36-6.39-5.37-7.87-.01-15.74-.01-23.6,0h-14.16v-8.35c.81,0,1.62,0,2.43-.02,3.7-.09,5.59-1.94,5.63-5.5.05-4.39.05-8.83,0-13.17-.04-3.2-1.92-5.19-5.16-5.46-.51-.04-1.04-.03-1.55-.03h-.5s-143.9,0-143.9,0c-5.75,0-7.32,1.58-7.33,7.33v3c-.01,2.67-.02,5.33,0,8,.04,3.91,1.88,5.76,5.81,5.84.77.01,1.54.01,2.34.01v8.35H19.91c-4.91,0-6.74,1.84-6.75,6.77v1.45c0,3.26-.01,6.52,0,9.78.03,4.19,1.9,6.08,6.06,6.14.72,0,1.44,0,2.18,0v149.9c-.95,0-1.88,0-2.8.02-3.32.12-5.35,2.08-5.42,5.26-.09,4.3-.09,8.69,0,13.44.06,3.18,1.96,5.16,5.23,5.43.37.03.74.04,1.12.04m216.72-20.56c.47,0,.93,0,1.4,0,2.22.03,2.53.33,2.55,2.51.02,2.48.02,4.95.01,7.43v3.05q0,3.94-4.03,3.94H20.1c-.46.01-.92.02-1.38-.02-1.59-.13-1.89-.74-1.91-1.9-.09-4.7-.09-9.05,0-13.29.02-1.1.33-1.67,1.93-1.72,1-.03,2-.02,3.02-.02h3.27s0-157.14,0-157.14h-3.16c-.9,0-1.74,0-2.59,0-2.18-.03-2.48-.34-2.5-2.55-.02-3.25-.01-6.5,0-9.75v-1.45c0-2.95.21-3.15,3.13-3.15,8.69,0,17.39,0,26.08,0h15.05v-15.59h-3.16c-.93,0-1.83.01-2.72,0-1.97-.04-2.25-.31-2.27-2.26-.03-2.65-.02-5.3-.01-7.95v-3.01q0-3.71,3.72-3.71h144.45c.4-.02.8-.01,1.2.01,1.39.12,1.82.56,1.84,1.9.05,4.32.05,8.72,0,13.08-.02,1.51-.27,1.89-2.11,1.94-.95.02-1.9.02-2.84.01h-3.11s0,15.58,0,15.58h17.77c7.87,0,15.73,0,23.6,0,2.74,0,2.76.81,2.78,1.84.09,4.1.1,8.45,0,13.29-.02,1.13-.32,1.71-1.88,1.77-.99.04-1.98.03-3.03.02h-3.34s0,157.14,0,157.14h4.32m-216.32,13.67h217.02v-10.38H19.95v10.38Zm213.41-3.61H23.56v-3.15h209.8v3.15Zm-71.79-10.01c2,0,2.87-1.16,4.08-3.82,5.09-11.14,7.29-23.45,6.73-37.65-.43-10.94-.33-22.1-.23-32.89.04-4.76.09-9.53.09-14.29v-4.56h-87.28l-.13,2.53c-.03.59-.07,1.14-.07,1.7v5.69c0,19.59,0,39.18.03,58.77.02,1.54.29,3.06.8,4.51,1.37,3.99,2.8,7.97,4.23,11.94l1.36,3.8c1.51,4.21,2.44,4.47,6.95,4.06l1.64-.15v-61.66c0-2.94.18-3.12,3.14-3.12,17.1-.01,34.2-.01,51.31,0,2.79,0,2.98.2,2.98,3.02v61.24l1.33.37c.98.31,2,.49,3.03.53m7.05-89.6v.95c0,4.75-.04,9.51-.09,14.26-.1,10.84-.2,22.04.24,33.07.54,13.62-1.56,25.39-6.41,36.01-.25.64-.57,1.25-.94,1.82-.07-.01-.3-.07-.6-.15v-58.48c0-4.83-1.79-6.63-6.6-6.63-17.1-.01-34.2-.01-51.31,0-4.98,0-6.75,1.76-6.75,6.73v58.34c-.31.04-.62.03-.93-.02-.04-.11-.36-1.01-.65-1.79l-1.37-3.8c-1.42-3.96-2.85-7.91-4.22-11.89-.38-1.08-.59-2.21-.61-3.35-.04-19.59-.05-39.17-.03-58.76v-5.69c0-.2,0-.41.01-.61h80.24Zm-118.34,89.58c1.87.16,3.58-1.05,4.06-2.86,1.13-3.26,2.29-6.51,3.46-9.76.95-2.65,1.9-5.3,2.83-7.96.36-1.09.54-2.24.53-3.39.02-43.03.02-86.07.01-129.1,0-.45-.02-.9-.05-1.44l-.12-2.54H28.5v156.6l1.97.27c.46.09.92.13,1.38.15,2.09,0,4.19,0,6.29,0,4.02,0,8.05,0,12.07.04h.08Zm.45-3.63c-.16.02-.33.03-.49.02-4.04-.04-8.07-.04-12.11-.04h-6.02V71.14h25.44c0,.12,0,.25,0,.37,0,43.03,0,86.06-.01,129.09.01.75-.1,1.49-.33,2.2-.92,2.65-1.87,5.29-2.82,7.94-1.17,3.26-2.34,6.53-3.47,9.8-.04.14-.1.28-.18.4h0m152.95,3.52h24.83V67.58h-32.69v25c0,35.59.01,71.19.04,106.78.03,2.09.39,4.15,1.06,6.12,1.46,4.32,3.04,8.68,4.56,12.9l2.19,6.07Zm21.21-3.61h-18.67l-1.33-3.69c-1.52-4.2-3.09-8.54-4.54-12.83-.56-1.6-.85-3.28-.88-4.97-.05-35.59-.06-71.19-.04-106.78v-21.38h25.46v149.65Zm-94.73,3.61h23.8v-61.76h-23.8v61.76Zm20.18-3.61h-16.57v-54.53h16.57v54.53Zm17.27,3.58h32.77l-1.77-4.96c-.66-1.87-1.31-3.7-1.99-5.52-.28-.75-.51-1.59-.75-2.48-.68-2.46-1.37-5.02-3.33-6.43s-4.61-1.15-7.19-.91c-.85.08-1.69.16-2.48.17-.56.01-1.17-.03-1.78-.07-1.99-.12-4.23-.26-5.9.9-1.6,1.11-2.14,3.2-2.61,5.04-.16.64-.32,1.27-.53,1.84-.8,2.21-1.59,4.43-2.41,6.72l-2.03,5.69Zm27.64-3.61h-22.52l.3-.86c.82-2.28,1.6-4.5,2.4-6.7.24-.67.44-1.42.63-2.17.28-1.11.67-2.62,1.16-2.96.65-.45,2.23-.35,3.63-.27.7.04,1.39.07,2.04.08.88,0,1.83-.1,2.78-.19,1.82-.18,3.88-.37,4.73.24.92.67,1.47,2.68,1.96,4.45.26.93.52,1.9.85,2.79.67,1.8,1.32,3.61,1.98,5.46l.05.13Zm-92.31,3.61h23.88v-61.76h-23.88v61.76Zm20.26-3.61h-16.65v-54.53h16.65v54.53Zm-66.58,3.58h32.69l-1.58-4.52c-.56-1.6-1.1-3.15-1.64-4.69-.31-.88-.63-1.76-.95-2.64-.62-1.71-1.25-3.43-1.81-5.16-.42-1.97-2.26-3.32-4.27-3.12-2.12.06-4.25.05-6.37.05-2,0-4,0-6.01.04-1.13.02-3.06.75-3.62,2.22-1.49,3.91-2.87,7.79-4.33,11.89l-2.12,5.94Zm27.6-3.61h-22.48l.4-1.12c1.42-3.99,2.76-7.76,4.2-11.55.14-.08.28-.13.44-.15,1.96-.05,3.93-.04,5.9-.04,2.16,0,4.32,0,6.48-.05.16-.02.33,0,.49.04.11.18.19.38.24.58.57,1.77,1.21,3.53,1.85,5.28.32.87.63,1.74.94,2.61.51,1.45,1.02,2.9,1.54,4.39m-19.85-19.62h17.3v-69.54c0-3.32.09-3.42,3.31-3.42h87.1c3.09,0,3.21.12,3.21,3.27v69.64h17.29V35.08H64.4v166.06Zm13.68-3.61h-10.07V38.7h120.97v158.79h-10.06v-66.02c0-5.15-1.72-6.88-6.82-6.88h-87.1c-5.24,0-6.92,1.71-6.92,7.03v65.92Zm117.88-133.33h41.01v-10.51h-41.01v10.51Zm37.4-3.61h-33.79v-3.28h33.79v3.28Zm-213.37,3.57h41.04v-10.47H19.99v10.47Zm37.43-3.61H23.61v-3.24h33.82v3.24Zm-1.35-28.86h144.78v-10.49H56.07v10.49Zm141.16-3.61H59.68v-3.27h137.55v3.27Z"/>
        <path id="_패스_275" data-name="패스 275" class="cls-3" d="m165.92,48.03c-3.58,0-7.15-.03-10.73.01-2.58.03-3.77,1.22-3.78,3.83-.03,7.23-.03,14.47,0,21.7.01,2.62,1.14,3.9,3.73,3.92,7.31.08,14.62.08,21.93,0,2.58-.02,3.8-1.29,3.82-3.88.05-7.23.05-14.47,0-21.7-.02-2.71-1.26-3.85-4.01-3.88-3.65-.04-7.31,0-10.97,0m8.13,22.66h-15.85v-15.86h15.85v15.86Z"/>
        <path id="_패스_276" data-name="패스 276" class="cls-3" d="m166.24,79.35c3.58,0,7.2-.02,10.84-.05,3.54-.03,5.59-2.1,5.61-5.67.05-7.15.06-14.46,0-21.73-.02-2.56-1.04-5.63-5.8-5.67-2.59-.02-5.18-.02-7.78-.01h-3.21s-3.2,0-3.2,0c-2.52,0-5.04-.02-7.55.02-3.57.05-5.54,2.04-5.56,5.62-.03,7.24-.03,14.48,0,21.72.02,3.65,1.98,5.69,5.52,5.72,3.64.04,7.36.05,11.13.05m6.28-29.52c1.45,0,2.89,0,4.34.02,1.9.02,2.21.51,2.22,2.09.05,7.25.05,14.54,0,21.67-.01,1.62-.45,2.07-2.03,2.08-7.44.07-14.81.07-21.9,0-1.45-.02-1.93-.33-1.94-2.13-.03-7.23-.03-14.45,0-21.68,0-1.61.4-2.01,2-2.02,2.5-.03,5-.02,7.5-.02h3.21s3.22,0,3.22,0h3.39m-16.14,22.66h19.46v-19.47h-19.46v19.47Zm15.85-3.61h-12.23v-12.25h12.23v12.25Z"/>
        <path id="_패스_277" data-name="패스 277" class="cls-3" d="m105.61,62.57c0-3.58.03-7.15-.01-10.73-.03-2.59-1.21-3.79-3.8-3.8-7.31-.03-14.62-.03-21.93,0-2.45.01-3.72,1.2-3.74,3.66-.07,7.39-.07,14.78,0,22.18-.16,1.83,1.19,3.45,3.02,3.61.19.02.39.02.58,0,7.47.06,14.94.08,22.41-.01,2.31-.03,3.43-1.35,3.46-3.69.05-3.74.01-7.47.02-11.21m-6.84,8.11h-15.86v-15.84h15.86v15.84Z"/>
        <path id="_패스_278" data-name="패스 278" class="cls-3" d="m91.12,79.34c3.96,0,7.55-.02,11.04-.06,3.24-.04,5.2-2.09,5.25-5.47.04-2.62.03-5.24.02-7.86v-3.37s0-3.23,0-3.23c0-2.51.01-5.02-.02-7.52-.04-3.58-2.03-5.57-5.6-5.59-7.32-.03-14.63-.03-21.95,0-3.44.02-5.51,2.06-5.54,5.45-.06,7.03-.06,14.29,0,22.21-.16,2.82,1.99,5.24,4.81,5.4.2.01.39.01.59,0,4.2.03,7.94.05,11.41.05m12.68-16.76v3.38c.01,2.6.02,5.2-.02,7.8-.02,1.6-.58,1.9-1.68,1.91-6.5.08-13.4.08-22.37.01-1.27,0-1.8-.54-1.81-1.82-.06-7.89-.06-15.14,0-22.15.01-1.44.45-1.86,1.94-1.86,7.3-.04,14.61-.04,21.91,0,1.59,0,1.98.4,2,2.02.03,2.49.02,4.98.02,7.47v3.24Zm-22.7,9.92h19.47v-19.46h-19.48v19.46Zm15.86-3.61h-12.25v-12.23h12.25v12.23Z"/>
        <path id="_패스_279" data-name="패스 279" class="cls-3" d="m128.48,48.03c-3.5,0-6.99-.02-10.49,0-3.06.02-4.23,1.14-4.25,4.12-.03,7.07-.03,14.15,0,21.22.01,2.86,1.19,4.1,4.05,4.13,7.15.05,14.31.05,21.46,0,2.85-.02,4-1.27,4.01-4.17.03-7.07.03-14.15,0-21.22-.01-2.89-1.19-4.05-4.05-4.07-3.58-.03-7.15,0-10.73,0m-7.96,6.87h15.89v15.78h-15.89v-15.78Z"/>
        <path id="_패스_280" data-name="패스 280" class="cls-3" d="m128.53,79.35c3.63,0,7.22-.01,10.75-.04,3.83-.03,5.78-2.04,5.8-5.97.03-7.08.03-14.16,0-21.24-.02-3.86-1.98-5.83-5.84-5.87-2.48-.02-4.95-.02-7.43-.01h-6.49c-2.44,0-4.89,0-7.33,0-4.05.03-6.03,1.96-6.04,5.92-.03,7.08-.03,14.16,0,21.24.02,3.85,2.04,5.9,5.85,5.92,3.6.03,7.19.04,10.74.04m6.41-29.53c1.42,0,2.84,0,4.26.02,1.89.02,2.25.38,2.26,2.27.03,7.07.03,14.14,0,21.21,0,2.04-.5,2.36-2.21,2.37-6.97.06-14.17.06-21.43,0-1.85-.01-2.25-.43-2.26-2.33-.03-7.07-.03-14.14,0-21.21,0-1.87.24-2.31,2.45-2.32,2.43-.02,4.86-.01,7.3,0h9.64m-16.23,22.66h19.5v-19.4h-19.5v19.4Zm15.89-3.62h-12.27v-12.17h12.27v12.17Z"/>
        <path id="_패스_281" data-name="패스 281" class="cls-3" d="m128.42,85.69c-3.58,0-7.15-.03-10.73.01-2.74.03-3.93,1.2-3.95,3.93-.04,7.15-.04,14.31,0,21.46.01,2.75,1.17,4,3.88,4.02,7.23.06,14.46.06,21.69,0,2.75-.02,3.93-1.23,3.94-3.95.04-7.15.04-14.31,0-21.46-.01-2.85-1.19-3.97-4.11-4-3.58-.04-7.15,0-10.73,0m8.01,22.6h-15.85v-15.84h15.85v15.84Z"/>
        <path id="_패스_282" data-name="패스 282" class="cls-3" d="m128.47,116.95c3.57,0,7.2-.01,10.86-.04,3.73-.03,5.72-2.01,5.74-5.75.04-7.16.04-14.32,0-21.48-.02-3.81-2-5.76-5.9-5.8-2.56-.03-5.12-.02-7.68-.01h-3.06s-3.21,0-3.21,0c-2.51,0-5.03-.01-7.54.02-3.73.04-5.71,2.03-5.73,5.72-.04,7.16-.04,14.32,0,21.48.02,4.77,3.1,5.8,5.67,5.82,3.55.03,7.17.04,10.86.04m6.44-29.47c1.41,0,2.81,0,4.22.02,2.08.02,2.31.46,2.32,2.2.03,7.15.03,14.29,0,21.44-.01,1.74-.41,2.14-2.15,2.16-7.42.05-14.71.05-21.67,0-1.58-.01-2.07-.32-2.08-2.22-.03-7.15-.03-14.29,0-21.44,0-1.73.39-2.11,2.17-2.13,2.49-.03,4.99-.03,7.48-.02h3.22s3.07,0,3.07,0c1.14,0,2.28,0,3.42,0m-16.14,22.61h19.47v-19.45h-19.47v19.45Zm15.85-3.61h-12.23v-12.22h12.23v12.22Z"/>
        <path id="_패스_283" data-name="패스 283" class="cls-3" d="m166.05,85.69c-3.57,0-7.15-.03-10.72.01-2.77.04-3.91,1.17-3.92,3.92-.03,7.15-.03,14.3,0,21.46,0,2.8,1.1,4.01,3.83,4.03,7.23.06,14.46.06,21.69,0,2.75-.02,3.95-1.22,3.97-3.95.05-7.15.05-14.3,0-21.46-.02-2.86-1.21-3.98-4.12-4.01-3.58-.04-7.15,0-10.73,0m-7.83,6.83h15.84v15.83h-15.83v-15.83Z"/>
        <path id="_패스_284" data-name="패스 284" class="cls-3" d="m166.08,116.95c3.51,0,7.12-.01,10.86-.04,3.75-.03,5.74-2.01,5.76-5.74.05-6.85.05-14.08,0-21.48-.02-3.82-2.01-5.77-5.91-5.81-2.56-.03-5.11-.02-7.67-.01h-3.08s-3.24,0-3.24,0c-2.5,0-5.01-.02-7.51.02-3.77.05-5.69,1.97-5.7,5.72-.03,7.16-.03,14.31,0,21.47.01,3.84,1.91,5.8,5.62,5.83,3.55.03,7.15.04,10.85.04m6.49-29.47c1.4,0,2.8,0,4.2.02,2.04.02,2.32.46,2.33,2.22.04,7.38.04,14.6,0,21.43-.01,1.74-.42,2.14-2.17,2.15-7.67.05-14.76.05-21.66,0-1.6-.01-2.03-.29-2.04-2.23-.03-7.15-.03-14.3,0-21.44,0-1.76.35-2.1,2.14-2.12,2.48-.03,4.97-.02,7.46-.02h3.25s3.08,0,3.08,0c1.14,0,2.28,0,3.43,0m-16.15,22.66h19.45v-19.44h-19.45v19.44Zm15.83-3.61h-12.22v-12.21h12.22v12.21Z"/>
        <path id="_패스_285" data-name="패스 285" class="cls-3" d="m90.74,85.69c-3.49,0-6.99-.03-10.49,0-2.91.03-4.12,1.15-4.14,3.99-.05,7.15-.05,14.3,0,21.45.02,2.73,1.22,3.95,3.95,3.97,7.23.05,14.46.05,21.69,0,2.75-.02,3.84-1.22,3.85-4.01.03-7.15.03-14.31,0-21.46-.01-2.77-1.14-3.9-3.9-3.94-3.65-.05-7.31-.01-10.96-.01m-7.83,6.87h15.83v15.77h-15.83v-15.77Z"/>
        <path id="_패스_286" data-name="패스 286" class="cls-3" d="m90.9,116.95c3.69,0,7.32-.01,10.86-.04,3.73-.03,5.63-1.99,5.64-5.81.03-7.15.03-14.31,0-21.47-.01-3.76-1.93-5.69-5.68-5.74-2.53-.03-5.06-.03-7.58-.02h-3.41s-3.17,0-3.17,0c-2.45,0-4.89,0-7.33.01-3.91.04-5.9,1.98-5.93,5.79-.05,7.15-.05,14.38,0,21.48.03,3.74,2.01,5.73,5.74,5.76,3.66.03,7.28.04,10.85.04m6.39-29.47c1.46,0,2.93,0,4.39.03,1.77.02,2.11.36,2.11,2.14.03,7.15.03,14.29,0,21.44,0,1.93-.42,2.2-2.06,2.21-6.96.06-14.25.06-21.66,0-1.74-.01-2.14-.42-2.15-2.17-.05-7.09-.05-14.3,0-21.43.01-1.74.29-2.17,2.35-2.2,2.43-.02,4.86-.02,7.29-.01h3.18s3.42,0,3.42,0c1.04,0,2.09,0,3.14,0m-16.19,22.66h19.44v-19.38h-19.45v19.38Zm15.83-3.61h-12.22v-12.16h12.21v12.16Z"/>
      </g>
    </g>
  </g>
</svg>