<?xml version="1.0" encoding="UTF-8"?>
<svg id="_레이어_1" data-name="레이어 1" xmlns="http://www.w3.org/2000/svg" xmlns:xlink="http://www.w3.org/1999/xlink" viewBox="0 0 103.69 97">
  <defs>
    <style>
      .cls-1 {
        fill: none;
      }

      .cls-2 {
        clip-path: url(#clippath);
      }

      .cls-3 {
        fill: #040000;
      }

      .cls-4 {
        opacity: .77;
      }
    </style>
    <clipPath id="clippath">
      <rect class="cls-1" x="7.52" y="5.98" width="88.65" height="83.74"/>
    </clipPath>
  </defs>
  <g id="_그룹_18" data-name="그룹 18" class="cls-4">
    <g class="cls-2">
      <g id="_그룹_17" data-name="그룹 17">
        <path id="_패스_26" data-name="패스 26" class="cls-3" d="m96.17,87.39c-.04-.28-.08-.57-.12-.85-.09-.6-.18-1.23-.24-1.84-.31-3.26-.62-6.52-.92-9.77-.18-1.89-.35-3.78-.53-5.68-.5-5.27-1-10.53-1.5-15.79-.12-1.3-.25-2.59-.37-3.89-.25-2.64-.52-5.38-.76-8.06-.03-.69-.45-1.31-1.09-1.6-4.89-2.53-10.1-5.23-16.38-8.49-.6-.34-1.33-.37-1.96-.08-.93.4-1.89.8-2.82,1.18-.6.25-1.2.49-1.8.74-.08.04-.17.08-.24.11h0l-8.44,3.26c1.93-3.2,3.86-6.43,5.77-9.63,1.76-2.89,2.3-6.35,1.52-9.64-.7-3.25-2.53-6.14-5.15-8.17-2.68-2.07-5.97-3.2-9.36-3.21h0c-.36.05-.73.09-1.08.13-.77.09-1.56.18-2.33.35-4.5.93-8.28,3.98-10.13,8.19-1.81,4-1.55,8.63.69,12.41,1.99,3.38,4.03,6.78,6.06,10.13h0l-8.79-3.84c-.07-.04-.14-.07-.22-.1l-.36-.15-.06-.03h0c-.44-.18-.88-.36-1.3-.54-.87-.36-1.77-.73-2.65-1.11-.78-.37-1.69-.33-2.43.12l-1.36.71c-4.58,2.4-9.32,4.89-14.03,7.24-1.22.51-2,1.71-1.98,3.03-.26,3.38-.59,6.81-.91,10.13-.11,1.18-.23,2.35-.34,3.53-.32,3.33-.63,6.67-.95,10.01l-.93,9.77c-.36,3.78-.73,7.7-1.1,11.54-.07.77-.08,1.44.59,1.92.63.38,1.42.35,2.02-.07,2.02-.97,4.05-1.93,6.07-2.9,3.39-1.62,6.9-3.29,10.34-4.95.61-.34,1.33-.38,1.97-.11,4.2,1.54,8.49,3.09,12.62,4.58,3.12,1.13,6.34,2.29,9.5,3.44.74.29,1.56.29,2.3,0,3.96-1.44,7.99-2.9,11.88-4.31,3.5-1.27,7-2.53,10.5-3.8.48-.2,1.03-.17,1.49.08,4.72,2.27,9.52,4.56,14.17,6.77l2.48,1.18c.38.21.8.34,1.24.37.54,0,.93-.34,1.44-1.08v-.02s0-1.23,0-1.23ZM41.53,14.88c2.07-3.76,6.09-6.01,10.38-5.8h.03c5.63-.11,10.5,3.88,11.5,9.42.47,2.34.05,4.77-1.18,6.82-2.5,4.19-5.06,8.44-7.54,12.56-.91,1.5-1.81,3.01-2.72,4.51-.03.05-.07.1-.11.15l-.08.1-.42-.69c-.32-.52-.61-1.01-.91-1.5-.87-1.45-1.75-2.91-2.61-4.36-1.93-3.23-3.93-6.57-5.94-9.83-2.39-3.87-2.52-7.7-.39-11.37m-12.91,22.28c-.09,1.45-.17,2.87-.26,4.3-.19,2.92-.37,5.85-.56,8.77-.13,2.13-.27,4.25-.41,6.38-.25,3.93-.5,7.87-.75,11.8l-.41,6.43c-.02.27-.03.55-.05.82-.04.74-.08,1.51-.17,2.25-.04.29-.2.56-.44.73-4.32,2.09-8.73,4.19-12.99,6.21l-1.55.74s-.07.01-.1,0h-.11c.03-.37.06-.74.09-1.1.07-.83.14-1.69.22-2.53.5-5.27,1-10.53,1.5-15.79.32-3.35.64-6.7.96-10.05l.53-5.57c.06-.61.12-1.21.17-1.82.18-1.92.37-3.91.58-5.86.04-.3.19-.56.44-.74,4.06-2.14,8.22-4.29,12.24-6.37l.83-.43c.08-.04.17-.06.26-.08l.1-.02-.11,1.91Zm21.7,32.1v15.72c0,.24-.02.47-.03.72,0,.1-.01.2-.02.3l-.13-.02c-.08,0-.15-.02-.22-.04l-5.33-1.92c-4.93-1.78-10.02-3.62-15.04-5.41-.51-.18-.5-.47-.47-.9l.11-1.57c.17-2.55.35-5.19.51-7.78.33-5.25.66-10.51.98-15.76.27-4.36.54-8.72.81-13.08.07-1.06.14-2.11.22-3.23.03-.48.07-.97.1-1.47l.91.37,1.34.54h0l13.32,5.47c.98,1.62,1.96,3.25,2.94,4.87,0,0,0,0,0,.01h0v10.51c0,4.23,0,8.45,0,12.68m23.46,9.46c-4.74,1.69-9.55,3.43-14.21,5.11l-5.51,1.99c-.15.05-.3.09-.49.14l-.26.07v-29.68h0v-10.27h-.01l1.1-1.83,1.63-2.7,12.75-5.5c.7-.27,1.38-.55,2.1-.85l.89-.36c0,.07.02.14.03.2.02.17.04.31.05.46l.19,2.96c.38,5.89.76,11.77,1.14,17.66.14,2.19.28,4.39.42,6.58.31,4.85.62,9.88.95,14.81.13.54-.19,1.08-.73,1.22-.02,0-.03,0-.05.01m17.04,6.02c-1.52-.72-2.98-1.41-4.43-2.11-.79-.38-1.57-.75-2.35-1.13-1.88-.9-3.83-1.83-5.75-2.73-.44-.15-.73-.57-.71-1.03-.34-5.66-.7-11.42-1.06-16.99l-.1-1.59c-.23-3.58-.46-7.17-.69-10.75-.21-3.26-.42-6.53-.63-9.79-.05-.77-.09-1.54-.14-2.35-.02-.35-.04-.71-.06-1.09l.25.11c.21.09.39.18.57.27l3.43,1.78c2.91,1.51,5.93,3.07,8.9,4.59.48.2.79.66.79,1.18.47,5.21.97,10.49,1.46,15.61l.22,2.32c.28,2.94.56,5.89.84,8.83.33,3.46.66,6.92.99,10.38.11,1.21.22,2.42.33,3.7.05.57.1,1.15.15,1.75l-2.02-.96Z"/>
        <path id="_패스_27" data-name="패스 27" class="cls-3" d="m51.87,28.08c4.03-.01,7.31-3.26,7.36-7.29,0-4.05-3.26-7.36-7.31-7.42-1.94-.05-3.81.69-5.2,2.03-2.96,2.76-3.11,7.4-.35,10.35,1.38,1.48,3.32,2.32,5.35,2.32h.15m-4.45-7.32c0-1.16.46-2.26,1.29-3.07.82-.83,1.93-1.3,3.09-1.31h.02c2.39.03,4.34,1.95,4.39,4.34,0,1.16-.46,2.26-1.29,3.07-.82.83-1.93,1.3-3.1,1.31h-.03c-2.39-.03-4.33-1.95-4.38-4.34"/>
      </g>
    </g>
  </g>
</svg>