<?xml version="1.0" encoding="UTF-8"?>
<svg id="_레이어_1" data-name="레이어 1" xmlns="http://www.w3.org/2000/svg" xmlns:xlink="http://www.w3.org/1999/xlink" viewBox="0 0 103.69 97">
  <defs>
    <style>
      .cls-1 {
        fill: none;
      }

      .cls-2 {
        clip-path: url(#clippath);
      }

      .cls-3 {
        fill: #040000;
      }

      .cls-4 {
        opacity: .77;
      }
    </style>
    <clipPath id="clippath">
      <rect class="cls-1" x="7.61" y="5.98" width="87.03" height="85.04"/>
    </clipPath>
  </defs>
  <g id="_그룹_20" data-name="그룹 20" class="cls-4">
    <g class="cls-2">
      <g id="_그룹_19" data-name="그룹 19">
        <path id="_패스_28" data-name="패스 28" class="cls-3" d="m94.63,13.99v-3.38c0-.44-.04-.87-.12-1.3-.21-1.1-.88-2.07-1.84-2.65-.98-.61-2.16-.8-3.27-.52-2.01.46-3.37,2.32-3.22,4.37,0,2.47-.01,4.93,0,7.39v3.92c0,.27,0,.54-.03.81-.05.53-.49.95-1.02.97-.56.06-1.07-.32-1.19-.87-.04-.25-.06-.5-.05-.75v-3.92c0-2.57,0-5.22-.02-7.83,0-1.55-.84-2.99-2.2-3.73-2.06-1.1-4.62-.32-5.72,1.74-.37.69-.54,1.46-.49,2.24.02,2.85.01,5.76,0,8.56v2.79c.06.55-.1,1.1-.43,1.53-.21.18-.48.27-.75.25-.35,0-1.16-.01-1.16-1.82v-2.88c0-2.8,0-5.7,0-8.55.07-1.23-.43-2.42-1.35-3.24-1.19-1.15-2.97-1.46-4.48-.77-1.6.59-2.64,2.14-2.57,3.85,0,1.96,0,3.92,0,5.88,0,3.22.02,6.55-.02,9.83-.11,6.6,4.07,12.51,10.33,14.6.23.07.28.12.28.4,0,1.18,0,2.37,0,3.55,0,1.51,0,3.06-.02,4.59-.03.19-.12.36-.27.48-2.35,1.53-3.74,4.18-3.67,6.98-.01,8.82-.01,17.6,0,26.08-.15,2.73,1.17,5.33,3.46,6.82.82.49,1.71.88,2.63,1.16.39.14.8.28,1.18.43l.07.03h1.85l.07-.03s.08-.03.12-.05c.04-.02.07-.03.11-.04,4.09-.46,7.17-3.95,7.11-8.06.05-9.03.03-17.99,0-26.66,0-2.66-1.33-5.14-3.55-6.6-.17-.13-.28-.32-.32-.53-.02-1.53-.02-3.08-.02-4.58,0-1.19,0-2.37-.01-3.56,0-.22.02-.27.32-.4.21-.09.43-.17.64-.26.85-.31,1.67-.69,2.46-1.14,4.55-2.62,7.31-7.53,7.17-12.78.02-4.11.02-8.29,0-12.34m-9.66,59.63c.02,3.21.03,6.52-.04,9.78-.21,2.67-2.44,4.73-5.12,4.71-2.68.12-5.02-1.81-5.41-4.46-.06-.36-.09-.72-.1-1.08v-.78c0-8.26-.01-16.8,0-25.2-.13-2.56,1.6-4.85,4.1-5.42.42-.11.85-.16,1.28-.16,1.17,0,2.3.38,3.24,1.06,1.2.84,1.94,2.18,2,3.64.09,3.23.07,6.53.05,9.71,0,1.39-.02,2.78-.02,4.17h0c0,1.34,0,2.68.01,4.02m-3.95-32.38v6.96h-2.7v-6.97h2.7Zm-.1-19.04c-.09,1.52.69,2.97,2.01,3.73,1.25.75,2.8.79,4.08.09,1.28-.67,2.08-2,2.09-3.44.04-2.73.03-5.51.03-8.19,0-1.19,0-2.38,0-3.57,0-1.91.93-1.91,1.27-1.91.3-.02.6.08.82.28.36.46.52,1.04.46,1.62v7.76h-.02v.39c0,.86,0,1.73.01,2.59.02,1.87.03,3.81-.03,5.7-.27,5.24-3.98,9.66-9.09,10.85-6.4,1.56-12.87-2.34-14.47-8.74-.26-1.12-.39-2.26-.39-3.41-.03-3.86-.03-7.79-.02-11.59,0-1.24,0-2.47,0-3.71v-.04c0-.24,0-.48.04-.72.11-.58.62-1,1.21-.99h0c.59-.01,1.1.41,1.2.99.05.33.07.67.06,1v4.34c0,2.28,0,4.56,0,6.85-.18,1.99,1.12,3.81,3.06,4.29,1.14.3,2.36.1,3.34-.56.97-.64,1.6-1.68,1.73-2.83.04-.4.06-.79.06-1.19,0-1.63,0-3.27,0-4.9,0-2.01,0-4.03,0-6.04,0-.33.02-.66.08-.99.11-.56.59-.96,1.16-.96.59-.03,1.12.38,1.24.95.04.26.06.53.05.79v11.55"/>
        <path id="_패스_29" data-name="패스 29" class="cls-3" d="m37.35,18.64c-.78-6.63-6.27-11.81-13.36-12.58-6.7-.67-13.02,3.25-15.39,9.55-.32.94-.56,1.9-.72,2.88-.08.43-.17.87-.27,1.3v.05s0,7.78,0,7.78v.07c.06.29.12.59.17.88.1.66.24,1.32.42,1.96,1.34,4.75,4.98,8.5,9.69,9.98h.03c.1.05.21.09.31.12,0,.64,0,1.29,0,1.93,0,1.78-.02,3.63.03,5.45.11.82-.26,1.62-.96,2.07-1.9,1.38-3,3.6-2.96,5.94v1.38c-.03,8.36-.05,17.01,0,25.51-.03,4.09,3.04,7.54,7.1,7.97.04.01.07.03.11.04.04.02.08.04.12.05l.07.03h1.89l.1-.08.04-.03c4.15-.57,7.21-4.15,7.13-8.33v-26.08c.06-2.8-1.32-5.44-3.66-6.99-.17-.17-.26-.4-.27-.64-.02-1.23-.02-2.49-.02-3.7,0-1.29,0-2.63-.02-3.95,0-.49.08-.61.58-.79,5.3-1.94,8.54-5.54,9.65-10.7.66-3.67.72-7.41.18-11.1m-14.75-9.74h.03c5.38-.06,10.12,3.51,11.53,8.7.28,1.35.44,2.73.48,4.11.04.62.07,1.27.13,1.9-.06.65-.09,1.3-.13,1.93-.03,1.38-.19,2.76-.47,4.11-1.47,5.53-6.7,9.21-12.4,8.73-5.62-.26-10.25-4.51-10.99-10.08-.54-3.57-.45-7.21.28-10.74,1.41-5.19,6.17-8.77,11.55-8.66m-1.37,32.34h2.72v6.97h-2.72v-6.97Zm-3.93,24.25c-.02-3.2-.03-6.5.04-9.75.21-2.67,2.44-4.73,5.12-4.71h.14c2.62-.04,4.87,1.86,5.27,4.45.06.39.09.78.1,1.18,0,8.61,0,17.21,0,25.82.15,2.19-1.08,4.24-3.08,5.14-1.62.78-3.53.69-5.08-.24-1.45-.8-2.38-2.3-2.47-3.96-.1-3.22-.08-6.51-.06-9.68.01-1.4.02-2.8.02-4.2h0c0-1.35,0-2.7-.01-4.05"/>
        <path id="_패스_30" data-name="패스 30" class="cls-3" d="m59.41,57.69v-.76c.17-2.97-1.26-5.81-3.74-7.44-.12-.11-.19-.26-.21-.42-.03-2.86-.03-5.7,0-8.46.03-.12.1-.23.2-.3,2.65-1.19,3.76-2.94,3.61-5.68-.18-3.27-.4-5.77-.7-8.13-.46-4.56-1.73-9-3.75-13.11-1.27-2.75-3.31-5.07-5.88-6.68-1.25-.8-2.84-.87-4.16-.19-1.25.72-2,2.06-1.96,3.5-.03,7.62-.03,15.85,0,25.17-.07,2.31,1.41,4.39,3.62,5.09.26.1.28.15.28.42,0,1.15,0,2.3,0,3.44,0,1.62,0,3.3-.02,4.94,0,.16-.08.31-.19.42-2.46,1.62-3.88,4.42-3.72,7.36.03,5.89.02,11.87.02,17.66v7.75c0,.46,0,.9.05,1.35.2,2.18,1.28,4.19,3,5.56,1.28.96,2.78,1.6,4.36,1.85h1.9s.1-.07.1-.07l.04-.03c4.27-.6,7.37-4.35,7.17-8.65-.05-8.19-.03-16.51,0-24.57m-6.96-9.49h-2.74v-7.55h2.74v7.55Zm-6.7-37.47v-.66c-.01-.91.34-.99.48-1.02.12-.03.24-.04.36-.04.31,0,.62.07.89.21,2.04,1.28,3.65,3.14,4.64,5.33,1.87,3.75,3.04,7.81,3.48,11.98.35,2.66.53,5.39.71,8.02v.14c.13.81-.1,1.62-.62,2.25-.64.57-1.48.86-2.33.79-1.41,0-3.07,0-4.71,0-1.92-.01-2.89-.96-2.9-2.82-.01-2.89,0-5.82,0-8.66v-15.51Zm.03,58.4h-.02v-3.53c0-2.97,0-6.05.01-9.07-.08-2.96,2.24-5.42,5.2-5.5,2.96-.08,5.42,2.24,5.5,5.2,0,.12,0,.24,0,.36.01,3.66,0,7.38,0,10.98v7.83c0,2.38,0,4.84-.01,7.26.02,1.57-.63,3.08-1.78,4.14-1.13.98-2.62,1.45-4.12,1.3-2.52-.17-4.54-2.16-4.73-4.68-.06-3.26-.05-6.58-.04-9.79,0-1.37,0-2.73.01-4.1l-.03-.38Z"/>
      </g>
    </g>
  </g>
</svg>