<svg xmlns="http://www.w3.org/2000/svg" width="31.219" height="30.668" viewBox="0 0 31.219 30.668">
  <defs>
    <style>
      .cls-1 {
        fill: #003091;
      }
    </style>
  </defs>
  <g transform="translate(-64.5 -1083.127)">
    <path id="패스_489" data-name="패스 489" class="cls-1" d="M30.989,31.668H5.23A1.239,1.239,0,0,1,4,30.421V14.434a1.253,1.253,0,0,1,.522-1.02L17.4,4.227a1.217,1.217,0,0,1,1.416,0L31.7,13.414a1.253,1.253,0,0,1,.522,1.02V30.421A1.239,1.239,0,0,1,30.989,31.668Z" transform="translate(62 1080.627)"/>
    <path id="패스_489_-_윤곽선" data-name="패스 489 - 윤곽선" class="cls-1" d="M30.989,33.168H5.23A2.742,2.742,0,0,1,2.5,30.421V14.434a2.757,2.757,0,0,1,1.152-2.242L16.531,3.006a2.717,2.717,0,0,1,3.158,0l12.879,9.186a2.756,2.756,0,0,1,1.151,2.241V30.421A2.742,2.742,0,0,1,30.989,33.168Zm-25.489-3H30.719V14.559L18.11,5.565,5.5,14.559Z" transform="translate(62 1080.627)"/>
  </g>
</svg>
