<?xml version="1.0" encoding="UTF-8"?>
<svg id="_레이어_1" data-name="레이어 1" xmlns="http://www.w3.org/2000/svg" xmlns:xlink="http://www.w3.org/1999/xlink" viewBox="0 0 30 30">
  <defs>
    <style>
      .cls-1 {
        fill: none;
      }

      .cls-2 {
        clip-path: url(#clippath);
      }

      .cls-3 {
        fill: #313131;
      }
    </style>
    <clipPath id="clippath">
      <rect class="cls-1" x="1.04" y="1.1" width="27.92" height="27.87"/>
    </clipPath>
  </defs>
  <g id="_그룹_434" data-name="그룹 434">
    <g class="cls-2">
      <g id="_그룹_433" data-name="그룹 433">
        <path id="_패스_380" data-name="패스 380" class="cls-3" d="m25.3,8.93h-4.16v-4.26c.02-1.94-1.54-3.52-3.47-3.54,0,0-.02,0-.03,0-1.78-.03-3.56-.03-5.27,0-1.81-.02-3.32,1.37-3.45,3.18-.07.87-.06,1.77-.05,2.64,0,.4,0,.8,0,1.2v.78h-4.26c-1.93-.03-3.52,1.51-3.55,3.45,0,.01,0,.03,0,.04-.03,1.68-.03,3.45,0,5.26-.02,1.81,1.37,3.32,3.18,3.45.87.07,1.76.06,2.62.05.4,0,.8,0,1.2,0h.82v4.09c0,.29.02.58.07.86.32,1.67,1.8,2.87,3.5,2.85,1.32,0,2.64,0,3.96,0h1.05c1.95.08,3.6-1.43,3.68-3.38,0-.1,0-.21,0-.31v-4.12h4.16c1.96.06,3.6-1.47,3.66-3.43,0-.07,0-.15,0-.22,0-1.65,0-3.29,0-4.94.06-1.96-1.48-3.59-3.44-3.65-.07,0-.15,0-.22,0m1.83,8.59c.07.94-.63,1.75-1.57,1.82-.09,0-.18,0-.27,0h-4.95c-.51-.07-.97.29-1.04.8,0,.08-.01.15,0,.23v4.94c.08.94-.61,1.76-1.55,1.84-.1,0-.2,0-.3,0h-4.92c-.94.08-1.76-.62-1.83-1.56,0-.09,0-.18,0-.27v-5c.04-.5-.33-.94-.83-.98-.05,0-.11,0-.16,0h-4.98c-.93.09-1.76-.6-1.85-1.54,0-.1,0-.2,0-.3,0-1.65,0-3.29,0-4.94-.06-.94.65-1.75,1.58-1.81.08,0,.16,0,.24,0h4.95c.51.07.98-.28,1.05-.79.01-.09.01-.17,0-.26v-4.94c-.07-.94.63-1.75,1.57-1.82.09,0,.18,0,.26,0h4.95c.94-.07,1.75.64,1.82,1.57,0,.08,0,.16,0,.23v4.94c-.07.51.28.99.79,1.06.09.01.18.01.28,0h4.92c.94-.08,1.76.62,1.83,1.56,0,.09,0,.18,0,.27v4.94"/>
      </g>
    </g>
  </g>
</svg>