<?xml version="1.0" encoding="UTF-8"?>
<svg id="_레이어_1" data-name="레이어 1" xmlns="http://www.w3.org/2000/svg" xmlns:xlink="http://www.w3.org/1999/xlink" viewBox="0 0 32.55 34.53">
  <defs>
    <style>
      .cls-1 {
        fill: none;
      }

      .cls-2 {
        clip-path: url(#clippath);
      }

      .cls-3 {
        fill: #313131;
      }
    </style>
    <clipPath id="clippath">
      <rect class="cls-1" width="32.55" height="34.33"/>
    </clipPath>
  </defs>
  <g id="_그룹_368" data-name="그룹 368">
    <g class="cls-2">
      <g id="_그룹_367" data-name="그룹 367">
        <path id="_패스_349" data-name="패스 349" class="cls-3" d="m16.75,0c.19.06.38.12.56.18,1.21.42,2.03,1.54,2.07,2.82.06,1.28-.68,2.46-1.86,2.96-.24.1-.27.23-.31.47-.11.53.18,1.07.68,1.27.64.36,1.22.81,1.86,1.24.24-.43.73-.65,1.21-.56,3.08.09,5.98,1.49,7.96,3.86,1.09,1.27,2.17,2.56,3.24,3.84.44.35.51.98.17,1.42-.06.08-.14.15-.23.21-1.25,1.25-2.5,2.5-3.74,3.74-.31.44-.92.55-1.36.25-.14-.09-.25-.22-.32-.37-.15-.21-.32-.4-.51-.57v.38c0,3.98,0,7.95,0,11.93.07.53-.21,1.05-.7,1.27H7.09c-.5-.21-.79-.72-.72-1.26.01-3.98,0-7.95,0-11.93v-.38l-.08-.02c-.17.23-.34.46-.51.68-.28.44-.86.57-1.3.29-.08-.05-.15-.11-.21-.18-1.32-1.31-2.64-2.63-3.95-3.96-.39-.33-.43-.9-.11-1.29,0,0,0,0,0,0,1.36-1.6,2.65-3.26,4.11-4.77,1.93-1.99,4.59-3.12,7.36-3.14.45-.06.89.16,1.11.55.81-.55,1.61-1.08,2.4-1.62.08-.08.12-.2.12-.31.01-.5,0-1.01,0-1.51,0-.79.26-1.08,1.05-1.18.65-.1,1.1-.72,1-1.37-.09-.58-.6-1.01-1.19-1.01-.61.04-1.09.53-1.11,1.13.01.42-.24.8-.63.94-.48.19-1.03-.05-1.22-.54-.05-.12-.07-.26-.06-.39.02-1.45,1.03-2.69,2.45-3,.09-.02.17-.05.25-.07h.87Zm4.74,10.33c-.46,2.31-2.39,4.05-4.74,4.28-1.09.11-2.18-.13-3.12-.69-1.33-.77-2.27-2.07-2.57-3.58-.04,0-.09,0-.13,0-.19.03-.38.05-.56.09-2.11.37-4.02,1.49-5.37,3.16-.9,1.08-1.81,2.15-2.66,3.16l2.6,2.63c.05-.06.12-.15.18-.24.48-.65.95-1.3,1.44-1.93.25-.35.7-.49,1.1-.35.39.15.64.52.63.94v14.62h15.98v-14.53c-.05-.45.21-.87.64-1.04.44-.15.93.03,1.17.43.3.39.59.79.88,1.18.24.32.48.64.68.91l2.64-2.58c-.5-.59-.99-1.2-1.51-1.78-.78-.94-1.6-1.83-2.48-2.67-1.34-1.17-3.01-1.87-4.78-2.01m-2.24.55c-.94-.63-1.88-1.27-2.83-1.89-.1-.04-.22-.03-.32.02-.41.26-.82.54-1.22.82-.52.35-1.05.71-1.57,1.06.57,1.14,1.75,1.85,3.03,1.83,1.24-.02,2.36-.73,2.91-1.84"/>
      </g>
    </g>
  </g>
</svg>