<?xml version="1.0" encoding="UTF-8"?>
<svg id="_레이어_1" data-name="레이어 1" xmlns="http://www.w3.org/2000/svg" xmlns:xlink="http://www.w3.org/1999/xlink" viewBox="0 0 103.69 97">
  <defs>
    <style>
      .cls-1 {
        fill: none;
      }

      .cls-2 {
        clip-path: url(#clippath);
      }

      .cls-3 {
        fill: #040000;
      }

      .cls-4 {
        opacity: .77;
      }
    </style>
    <clipPath id="clippath">
      <rect class="cls-1" x="10.3" y="7.03" width="83.1" height="82.34"/>
    </clipPath>
  </defs>
  <g id="_그룹_16" data-name="그룹 16" class="cls-4">
    <g class="cls-2">
      <g id="_그룹_15" data-name="그룹 15">
        <path id="_패스_18" data-name="패스 18" class="cls-3" d="m50.87,7.03h1.95c.53.18,1.06.35,1.59.54,12.45,4.33,24.9,8.68,37.35,13.03.58.29,1.13.65,1.63,1.07v8.04c-1.07,2.59-3.43,1.95-5.53,2.06v5.22c.06.85-.28,1.67-.92,2.23-.36.28-.55.72-.5,1.17.01,10.55.01,21.1,0,31.65,0,.26.03.52.04.88.86,0,1.66,0,2.46,0,1.51-.17,2.86.91,3.03,2.42.02.18.02.37,0,.56.02,1.2,0,2.41.01,3.61,0,.26.06.51.19.74.37.54.79,1.05,1.19,1.57v5.47c-.65,1.61-1.88,2.11-3.59,2.11-22.66-.03-45.32-.04-67.98-.02-2.87,0-5.73,0-8.6,0-1.51.1-2.82-1.04-2.92-2.56,0-.1,0-.2,0-.3-.01-1.29,0-2.57,0-3.86,0-.84.34-1.65.96-2.22.24-.26.39-.59.42-.94.05-1.18.01-2.36.02-3.54-.17-1.51.92-2.87,2.44-3.04.21-.02.42-.02.63,0,.8,0,1.6,0,2.42,0,.03-.17.05-.33.06-.5,0-10.77,0-21.54,0-32.31.01-.23-.07-.46-.22-.63-.87-.71-1.32-1.81-1.19-2.93.04-1.57,0-3.15,0-4.8-.95,0-1.81.03-2.67,0-1.52.06-2.8-1.12-2.86-2.65,0-.09,0-.19,0-.28,0-2.07,0-4.12,0-6.19,0-1.21.24-1.54,1.4-1.94l17.04-5.93,22.14-7.71m-22.56,65.8h47.03c.02-.1.04-.2.05-.3,0-10.83,0-21.65-.01-32.48-.02-.28-.14-.54-.35-.72-.66-.57-1.04-1.4-1.01-2.27v-4.42c0-.28-.03-.56-.05-.84H29.68v.92c0,1.42,0,2.84,0,4.26.08.82-.24,1.63-.85,2.17-.4.31-.6.81-.53,1.31,0,10.48.01,20.95,0,31.43v.94ZM13.1,28.92h77.49v-5.39H13.1v5.39Zm7.29-8.37v.12h63.11c-.28-.13-.37-.19-.46-.22-10.01-3.49-20.02-6.97-30.02-10.46-.85-.28-1.78-.24-2.61.1-5.9,2.07-11.81,4.13-17.72,6.18l-12.29,4.28m-7.29,66h77.46v-4.02H13.1v4.02Zm76.09-10.86H14.51v3.99h74.68v-3.99ZM25.5,40.03h-5.44v32.82h5.44v-32.82Zm58.13,0h-5.43v32.83h5.43v-32.83Zm-64.99-2.85h8.21v-5.37h-8.21v5.37Zm58.2,0h8.19v-5.39h-8.19v5.39Z"/>
        <path id="_패스_19" data-name="패스 19" class="cls-3" d="m36.6,41.32c0-.93-.01-1.76,0-2.58-.08-1.53,1.1-2.82,2.63-2.9.09,0,.18,0,.27,0,3.16-.02,6.33-.06,9.49.03.84.14,1.66.38,2.44.71.27.07.56.07.83,0,.84-.33,1.71-.57,2.6-.71,3.05-.09,6.11-.04,9.16-.03,1.55-.14,2.91.99,3.06,2.54.02.18.02.36,0,.53v2.42c.87,0,1.67,0,2.47,0,1.54-.15,2.91.98,3.06,2.52.02.18.02.36,0,.55,0,7.12,0,14.25,0,21.37.14,1.52-.98,2.87-2.5,3.01-.17.02-.35.02-.52,0-11.84,0-23.68,0-35.52,0-1.52.14-2.86-.98-3-2.49-.01-.15-.02-.3,0-.45,0-7.18,0-14.36,0-21.53-.11-1.53,1.03-2.86,2.56-2.97.14-.01.28-.01.42,0,.81-.01,1.62,0,2.55,0m27.67,19.26v-21.96c-.31-.01-.58-.04-.84-.04h-8.28c-1.49,0-1.92.42-1.92,1.93v19.37c0,.27.03.55.04.71h10.99Zm-24.85-22v22h11c.02-.13.04-.25.04-.38v-20.01c0-1.11-.53-1.6-1.67-1.6-1.97-.01-3.95,0-5.92,0h-3.45m11,27.42c.02-.23.04-.36.04-.49.05-1.86-.29-2.21-2.17-2.21h-8.43c-2.16,0-3.24-1.07-3.24-3.21v-15.97h-2.73v21.88h16.53Zm19.41-21.88h-2.74v.91c0,5.01,0,10.02,0,15.03,0,2.19-1.07,3.25-3.28,3.25-2.97,0-5.95,0-8.92,0-.75,0-1.39.21-1.56.98-.07.57-.07,1.14-.02,1.71h16.52v-21.88Z"/>
        <path id="_패스_20" data-name="패스 20" class="cls-3" d="m58.79,57.79c-.49,0-.98.04-1.46,0-.74-.02-1.33-.63-1.31-1.37,0-.02,0-.05,0-.07.02-.72.61-1.29,1.33-1.27.02,0,.04,0,.06,0,.92-.03,1.84-.03,2.75,0,.73-.01,1.34.57,1.37,1.3,0,.73-.56,1.35-1.29,1.4-.48.03-.97.03-1.46,0h0"/>
        <path id="_패스_21" data-name="패스 21" class="cls-3" d="m58.77,50.92c-.49,0-.97.03-1.46,0-.73-.02-1.3-.62-1.28-1.35,0,0,0-.02,0-.03-.02-.71.54-1.3,1.25-1.33,1-.05,2-.05,3,0,.71.05,1.26.63,1.27,1.33-.01.73-.58,1.33-1.32,1.38-.05,0-.11,0-.16,0h-1.3"/>
        <path id="_패스_22" data-name="패스 22" class="cls-3" d="m58.72,44.04c-.49,0-.97.03-1.46,0-.68-.02-1.22-.57-1.24-1.24-.11-.65.32-1.26.96-1.37.03,0,.06,0,.09-.01,1.13-.09,2.26-.09,3.38,0,.67.09,1.15.71,1.06,1.38,0,0,0,.01,0,.02-.03.68-.58,1.22-1.26,1.23-.51.04-1.02,0-1.54,0"/>
        <path id="_패스_23" data-name="패스 23" class="cls-3" d="m44.93,44.04c-.51,0-1.03.03-1.54,0-.67-.04-1.21-.59-1.24-1.26-.06-.68.42-1.29,1.1-1.38,1.1-.09,2.21-.09,3.31-.01.68.06,1.18.66,1.11,1.34,0,.03,0,.07-.01.1-.02.68-.58,1.22-1.26,1.22-.48.04-.97,0-1.46,0h0"/>
        <path id="_패스_24" data-name="패스 24" class="cls-3" d="m44.92,50.92c-.49,0-.97.03-1.46,0-.73-.03-1.31-.64-1.32-1.37,0-.71.56-1.29,1.27-1.33,1-.05,2-.05,3,0,.72.03,1.28.63,1.25,1.35,0,.02,0,.04,0,.06-.02.7-.58,1.27-1.28,1.3-.05,0-.11,0-.16,0h-1.3,0Z"/>
        <path id="_패스_25" data-name="패스 25" class="cls-3" d="m44.91,57.8c-.46,0-.92.03-1.38,0-.77,0-1.38-.63-1.38-1.4.02-.75.65-1.35,1.4-1.32.01,0,.02,0,.03,0,.89-.02,1.78-.02,2.67,0,.72-.05,1.35.49,1.4,1.21,0,.04,0,.08,0,.12.02.75-.57,1.37-1.32,1.38-.02,0-.04,0-.05,0-.46.03-.92,0-1.38,0"/>
      </g>
    </g>
  </g>
</svg>