<?xml version="1.0" encoding="UTF-8"?>
<svg id="_레이어_1" data-name="레이어 1" xmlns="http://www.w3.org/2000/svg" xmlns:xlink="http://www.w3.org/1999/xlink" viewBox="0 0 378.08 251.25">
  <defs>
    <style>
      .cls-1 {
        fill: none;
      }

      .cls-2 {
        clip-path: url(#clippath);
      }

      .cls-3 {
        fill: #0e3481;
      }
    </style>
    <clipPath id="clippath">
      <rect class="cls-1" x="5.61" y="5.04" width="366.85" height="236.83"/>
    </clipPath>
  </defs>
  <g id="_그룹_303" data-name="그룹 303">
    <g class="cls-2">
      <g id="_그룹_159" data-name="그룹 159">
        <path id="_패스_141" data-name="패스 141" class="cls-3" d="m51.87,241.87H11.16c-3.09-.03-5.57-2.56-5.54-5.66,0,0,0,0,0,0v-86.41h11.09v80.76h35.17v11.31Z"/>
        <rect id="_사각형_122" data-name="사각형 122" class="cls-3" x="71.8" y="149.8" width="11.09" height="90.09"/>
        <path id="_패스_142" data-name="패스 142" class="cls-3" d="m130,241.88c-2.35,0-4.45-1.48-5.23-3.7l-30.09-88.38h10.66l24.66,69.88,24.66-69.88h11.31l-30.74,88.38c-.78,2.22-2.88,3.7-5.23,3.7"/>
        <path id="_패스_143" data-name="패스 143" class="cls-3" d="m329.27,241.87h-148.74c-3.06,0-5.54-2.48-5.54-5.54v-84.69c0-3.06,2.48-5.54,5.54-5.54h48.39v11.09h-42.85v73.6h143.19v11.09Z"/>
        <rect id="_사각형_123" data-name="사각형 123" class="cls-3" x="180.53" y="188.44" width="48.39" height="11.09"/>
        <path id="_패스_144" data-name="패스 144" class="cls-3" d="m310.76,202.94c-34.06-.04-61.66-27.64-61.7-61.7v-40.77h8.32v40.77c0,29.48,23.9,53.38,53.39,53.38,29.48,0,53.38-23.9,53.38-53.38v-40.32h8.32v40.32c-.04,34.06-27.64,61.66-61.7,61.7"/>
        <rect id="_사각형_124" data-name="사각형 124" class="cls-3" x="306.6" y="198.78" width="8.32" height="37.54"/>
        <rect id="_사각형_125" data-name="사각형 125" class="cls-3" x="263.79" y="88.61" width="93.94" height="6.03"/>
        <path id="_패스_145" data-name="패스 145" class="cls-3" d="m357.73,52.01c0-25.94-21.03-46.97-46.97-46.97s-46.97,21.03-46.97,46.97v11.41h93.94v-11.41Z"/>
        <path id="_패스_146" data-name="패스 146" class="cls-3" d="m263.79,140.26c0,25.94,21.03,46.97,46.97,46.97s46.97-21.03,46.97-46.97v-36.03h-93.94v36.03Z"/>
        <rect id="_사각형_126" data-name="사각형 126" class="cls-3" x="263.79" y="73" width="93.94" height="6.03"/>
      </g>
    </g>
  </g>
</svg>