<?xml version="1.0" encoding="UTF-8"?>
<svg id="_레이어_1" data-name="레이어 1" xmlns="http://www.w3.org/2000/svg" xmlns:xlink="http://www.w3.org/1999/xlink" viewBox="0 0 37.9 31.44">
  <defs>
    <style>
      .cls-1 {
        fill: none;
      }

      .cls-2 {
        clip-path: url(#clippath);
      }

      .cls-3 {
        fill: #313131;
      }
    </style>
    <clipPath id="clippath">
      <rect class="cls-1" y="-1.36" width="37.9" height="32.8"/>
    </clipPath>
  </defs>
  <g class="cls-2">
    <g id="_그룹_451" data-name="그룹 451">
      <path id="_패스_386" data-name="패스 386" class="cls-3" d="m1.74,15.04c-.32,0-.57,0-.83,0-.46.03-.86-.31-.89-.77,0-.02,0-.05,0-.07C0,12.46,0,10.72.02,8.98c0-.55.38-.82.99-.83,2.14,0,4.28,0,6.42,0h5.47v-.87c-.26,0-.51,0-.76,0-.47.04-.88-.31-.92-.79,0-.04,0-.08,0-.11,0-2.28,0-4.56,0-6.84-.02-.47.34-.86.81-.88,0,0,0,0,0,0,.12-.01.24-.02.37-.02h13.11c.93,0,1.2.27,1.2,1.21,0,2.1,0,4.21,0,6.31,0,.83-.29,1.12-1.11,1.12h-.58v.87h11.71c.91,0,1.18.27,1.18,1.18v4.57c0,.85-.29,1.14-1.14,1.15h-.6v15.28c0,.72-.32,1.13-.87,1.12s-.84-.41-.84-1.11v-15.26h-9.44v.85c.28,0,.54,0,.81,0,.46-.02.86.33.88.8,0,.03,0,.07,0,.1,0,1.12,0,2.24,0,3.36.03.47-.33.88-.8.91-.02,0-.05,0-.07,0-.23.02-.45,0-.73,0,.06.59.11,1.15.17,1.7.17,1.58.35,3.16.53,4.74.02.13.02.27.03.4.03.47-.33.88-.8.9-.46.03-.86-.31-.9-.77-.14-1.19-.27-2.38-.4-3.57-.11-1.03-.24-2.06-.33-3.09-.03-.32-.2-.32-.43-.32-2.4,0-4.79,0-7.18,0h-.2c-1.03,0-1.02,0-1.13,1.02-.21,1.96-.43,3.91-.65,5.86,0,.48-.39.87-.87.87-.03,0-.06,0-.09,0-.46-.04-.8-.44-.76-.91,0-.04,0-.07.02-.1.19-1.88.41-3.75.61-5.62.04-.35.08-.69.12-1.11-.24,0-.46,0-.69,0-.48.04-.9-.32-.94-.8,0-.05,0-.09,0-.14,0-1.11,0-2.21,0-3.32-.04-.47.31-.87.78-.91.04,0,.09,0,.13,0,.25,0,.5,0,.78,0v-.85H3.45v15.13c0,.15,0,.3,0,.44-.04.45-.41.8-.87.79-.45,0-.82-.37-.83-.82-.01-.15,0-.3,0-.44v-15.13Zm.02-1.74h34.38v-3.4H1.76v3.4Zm11.19-7.77h12.02V.4h-12.02v5.13Zm12.02,12.13h-12.01v1.67h12.01v-1.67Zm-10.28-9.54h8.55v-.81h-8.55v.81Zm0,7.78h8.55v-.82h-8.55v.82Z"/>
    </g>
  </g>
</svg>