<?xml version="1.0" encoding="UTF-8"?>
<svg id="_레이어_1" data-name="레이어 1" xmlns="http://www.w3.org/2000/svg" xmlns:xlink="http://www.w3.org/1999/xlink" viewBox="0 0 211.2 207.41">
  <defs>
    <style>
      .cls-1 {
        fill: none;
      }

      .cls-2 {
        clip-path: url(#clippath);
      }

      .cls-3 {
        fill: #0e3481;
      }

      .cls-4 {
        clip-path: url(#clippath-1);
      }
    </style>
    <clipPath id="clippath">
      <rect class="cls-1" x="3.89" y="62.51" width="163.44" height="141.31"/>
    </clipPath>
    <clipPath id="clippath-1">
      <rect class="cls-1" x="151.84" y="3.23" width="54.4" height="47.03"/>
    </clipPath>
  </defs>
  <g id="_그룹_310" data-name="그룹 310">
    <g id="_그룹_166" data-name="그룹 166">
      <g class="cls-2">
        <g id="_그룹_165" data-name="그룹 165">
          <path id="_패스_150" data-name="패스 150" class="cls-3" d="m167.33,106.73v7.34c-.09.36-.19.71-.28,1.07-1.11,4.47-1.83,9.08-3.41,13.38-3.94,10.72-10.56,19.85-18.1,28.31-16.5,18.49-36.08,33.21-57.09,46.15-1.73,1.15-4,1.13-5.71-.06-17.77-10.81-34.43-23.08-49.28-37.7-9.18-9.02-17.43-18.78-23.26-30.37-8.9-17.7-8.59-35.18,2.11-51.97,7.46-11.7,18.25-18.83,32.25-20.06,14.85-1.31,26.97,4.42,36.59,15.63,1.61,1.88,2.98,3.96,4.54,6.05.27-.38.49-.72.74-1.03,1.83-2.61,3.81-5.11,5.93-7.48,11.77-11.75,25.81-16.32,41.97-11.66,16.38,4.72,26.18,16.3,31.01,32.31.83,3.34,1.49,6.71,1.97,10.12"/>
        </g>
      </g>
    </g>
    <g id="_그룹_168" data-name="그룹 168">
      <g class="cls-4">
        <g id="_그룹_165-2" data-name="그룹 165-2">
          <path id="_패스_150-2" data-name="패스 150-2" class="cls-3" d="m206.24,17.95v2.44c-.03.12-.06.24-.09.35-.3,1.5-.68,2.99-1.14,4.45-1.39,3.49-3.44,6.69-6.03,9.42-5.55,6.02-11.95,11.19-19,15.36-.58.38-1.33.38-1.9-.02-5.93-3.53-11.44-7.74-16.4-12.55-3.12-2.92-5.74-6.34-7.74-10.11-2.96-5.89-2.86-11.71.7-17.3,2.28-3.84,6.29-6.33,10.74-6.67,4.68-.45,9.27,1.5,12.18,5.2.54.62.99,1.32,1.51,2.01.09-.12.16-.24.25-.34.61-.87,1.27-1.7,1.98-2.49,3.92-3.91,8.59-5.43,13.97-3.88,5.45,1.57,8.72,5.43,10.32,10.76.28,1.11.5,2.23.66,3.37"/>
        </g>
      </g>
    </g>
  </g>
</svg>