<?xml version="1.0" encoding="UTF-8"?>
<svg id="_레이어_1" data-name="레이어 1" xmlns="http://www.w3.org/2000/svg" xmlns:xlink="http://www.w3.org/1999/xlink" viewBox="0 0 39.63 40.65">
  <defs>
    <style>
      .cls-1 {
        fill: none;
      }

      .cls-2 {
        clip-path: url(#clippath);
      }

      .cls-3 {
        fill: #003091;
      }

      .cls-4 {
        fill: #fff;
      }
    </style>
    <clipPath id="clippath">
      <rect class="cls-1" x="10.94" y="7.38" width="18.01" height="24.89"/>
    </clipPath>
  </defs>
  <g id="_그룹_589" data-name="그룹 589">
    <path id="_패스_483-2" data-name="패스 483-2" class="cls-4" d="m19.81,0c10.94,0,19.81,8.87,19.81,19.81s-8.87,19.81-19.81,19.81S0,30.76,0,19.81h0C0,8.87,8.87,0,19.81,0Z"/>
    <g id="_그룹_572" data-name="그룹 572">
      <g class="cls-2">
        <g id="_그룹_571" data-name="그룹 571">
          <path id="_패스_478" data-name="패스 478" class="cls-3" d="m20.42,7.38c.26.03.51.06.77.1,3.16.41,5.85,2.49,7.05,5.44.84,1.95.95,4.15.29,6.17-.53,1.72-1.26,3.36-2.18,4.91-1.64,2.79-3.53,5.41-5.66,7.84-.23.41-.74.55-1.15.33-.14-.08-.25-.19-.33-.33-2.43-2.75-4.54-5.77-6.29-8.99-.83-1.47-1.43-3.05-1.78-4.7-.67-3.08.37-6.28,2.73-8.37,1.4-1.32,3.19-2.14,5.09-2.34.17-.02.34-.04.5-.05h.97Zm-.52,13.55c2.5.02,4.55-1.99,4.57-4.5s-1.99-4.55-4.5-4.57c-2.49-.02-4.53,1.97-4.57,4.46-.04,2.51,1.96,4.57,4.47,4.61,0,0,.02,0,.03,0"/>
        </g>
      </g>
    </g>
  </g>
</svg>