<?xml version="1.0" encoding="UTF-8"?>
<svg id="_레이어_1" data-name="레이어 1" xmlns="http://www.w3.org/2000/svg" xmlns:xlink="http://www.w3.org/1999/xlink" viewBox="0 0 32.94 30">
  <defs>
    <style>
      .cls-1 {
        fill: none;
      }

      .cls-2 {
        clip-path: url(#clippath);
      }

      .cls-3 {
        fill: #313131;
      }
    </style>
    <clipPath id="clippath">
      <rect class="cls-1" y="1.18" width="32.79" height="27.65"/>
    </clipPath>
  </defs>
  <g id="_그룹_364" data-name="그룹 364">
    <g class="cls-2">
      <g id="_그룹_363-2" data-name="그룹 363-2">
        <path id="_패스_345-2" data-name="패스 345-2" class="cls-3" d="m0,11.48c.06-.18.12-.36.2-.53.36-.84,1.2-1.37,2.11-1.34,1.98,0,3.95,0,5.93,0,.22.03.43-.11.49-.33,1.07-2.47,2.15-4.94,3.24-7.41.14-.45.57-.73,1.03-.69.53.06.91.53.85,1.06-.01.12-.05.23-.1.34-.6,1.38-1.2,2.76-1.8,4.13-.41.95-.82,1.89-1.25,2.87h11.4c-.06-.14-.11-.27-.16-.39-.96-2.2-1.92-4.4-2.88-6.59-.23-.48-.02-1.05.46-1.28.48-.23,1.05-.02,1.28.46,0,.02.02.03.02.05.64,1.47,1.28,2.93,1.92,4.4.45,1.03.91,2.07,1.35,3.11.05.19.23.3.42.28,2.03,0,4.06-.02,6.08,0,1.22,0,2.2,1,2.2,2.22,0,.15-.02.29-.05.44-.12.63-.27,1.25-.42,1.87-.98,4.26-1.95,8.52-2.93,12.78-.19,1.14-1.19,1.95-2.34,1.9-7.11,0-14.22,0-21.33,0-1.13.05-2.12-.73-2.33-1.84C2.28,22.08,1.17,17.19.05,12.29c-.01-.04-.03-.08-.05-.12v-.7m7.73.08s-.09-.02-.14-.03H2.34c-.36,0-.46.15-.37.52,1.09,4.76,2.18,9.51,3.27,14.27.13.57.15.58.72.58h21.01c.31,0,.5-.09.58-.42,1.09-4.79,2.18-9.58,3.28-14.37.11-.48.02-.59-.48-.59h-4.96c-.09,0-.18.01-.31.02.08.19.15.34.21.5.24.48.03,1.07-.45,1.3-.01,0-.02.01-.03.02-.49.21-1.05-.01-1.26-.5,0-.01,0-.02-.01-.03-.17-.36-.32-.72-.47-1.09-.04-.15-.18-.24-.33-.22-4.22,0-8.43,0-12.65,0-.16-.02-.31.09-.35.25-.15.37-.3.73-.47,1.08-.2.48-.75.72-1.24.52-.01,0-.03-.01-.04-.02-.48-.22-.7-.79-.48-1.27.07-.17.14-.33.22-.52"/>
        <path id="_패스_346-2" data-name="패스 346-2" class="cls-3" d="m11.59,20.19v3.49c.01.4-.23.76-.6.9-.35.17-.77.08-1.02-.22-.16-.19-.26-.43-.28-.69-.02-2.34-.02-4.68-.01-7.02,0-.53.43-.96.96-.96s.96.43.96.96c0,1.17,0,2.35,0,3.52"/>
        <path id="_패스_347-2" data-name="패스 347-2" class="cls-3" d="m15.44,20.19v-3.43c-.06-.53.33-1.01.86-1.06.53-.06,1.01.33,1.06.86,0,.07,0,.14,0,.21v6.82c.06.53-.33,1.01-.86,1.06-.53.06-1.01-.33-1.06-.86,0-.07,0-.14,0-.21v-3.4"/>
        <path id="_패스_348-2" data-name="패스 348-2" class="cls-3" d="m21.21,20.14v-3.36c-.07-.53.31-1.01.84-1.08.53-.07,1.01.31,1.08.84,0,.07,0,.15,0,.22v6.79c.07.53-.3,1.02-.84,1.09s-1.02-.3-1.09-.84c-.01-.09-.01-.18,0-.27v-3.4"/>
      </g>
    </g>
  </g>
</svg>