<?xml version="1.0" encoding="UTF-8"?>
<svg id="_레이어_1" data-name="레이어 1" xmlns="http://www.w3.org/2000/svg" xmlns:xlink="http://www.w3.org/1999/xlink" viewBox="0 0 32.57 30">
  <defs>
    <style>
      .cls-1 {
        fill: none;
      }

      .cls-2 {
        clip-path: url(#clippath);
      }

      .cls-3 {
        fill: #313131;
      }
    </style>
    <clipPath id="clippath">
      <rect class="cls-1" y=".29" width="32.57" height="29.42"/>
    </clipPath>
  </defs>
  <g id="_그룹_380" data-name="그룹 380">
    <g class="cls-2">
      <g id="_그룹_379" data-name="그룹 379">
        <path id="_패스_362" data-name="패스 362" class="cls-3" d="m32.48,1.97v19.49c-.21,1.08-1.25,1.78-2.33,1.58h-8.85v4.68h5.08c.52-.02.96.39.98.91.02.46-.31.87-.76.96-.14.02-.27.03-.41.02H6.38c-.09,0-.19,0-.28,0-.37-.02-.69-.26-.82-.6-.19-.49.05-1.03.53-1.22.13-.05.27-.07.41-.06,1.57,0,3.14,0,4.71,0h.33v-4.68H2.07c-.9.04-1.71-.56-1.92-1.44-.02-.05-.04-.1-.06-.14V1.97C.33.92,1.34.23,2.41.37c9.29.02,18.59.03,27.88.01h.38c.54,0,1.04.26,1.37.69.18.28.33.58.45.89m-1.92.34H2v18.82h28.56V2.31Zm-11.2,20.76h-6.16v4.64h6.16v-4.64Z"/>
        <path id="_패스_363" data-name="패스 363" class="cls-3" d="m6.22,29.71s-.09,0-.13,0c-.4-.03-.75-.28-.89-.66-.13-.31-.09-.66.09-.93.21-.3.56-.48.93-.47h4.96v-4.52H2.06c-.94.04-1.78-.59-2-1.5-.01-.03-.02-.06-.04-.09l-.02-.05h0V1.95C.26.86,1.29.15,2.4.29h.01c7.1.02,14.33.01,21.31.01h6.95c.56,0,1.09.27,1.43.72.13.2.24.4.33.62.04.09.08.19.13.28v.02s0,19.53,0,19.53h0c-.22,1.12-1.29,1.85-2.4,1.65h-8.77v4.51h4.99c.57-.01,1.04.44,1.06,1.01.01.5-.34.94-.83,1.03-.12.02-.24.03-.36.02H6.22m2-1.9h-2c-.31,0-.61.14-.79.4-.15.23-.18.52-.07.78.12.32.41.53.75.55.06,0,.13,0,.19,0h19.95c.11,0,.22,0,.33-.02.47-.09.77-.55.68-1.01-.08-.42-.45-.71-.88-.69h-5.16v-4.85h8.94c1.04.2,2.04-.48,2.24-1.51V1.99c-.04-.09-.08-.18-.12-.27-.08-.21-.19-.41-.31-.59-.31-.41-.79-.65-1.3-.65-.09,0-.18,0-.27,0h-6.67c-6.99,0-14.21,0-21.32-.01h0C1.38.32.41.97.17,1.98v19.49s.04.07.05.11c.21.84.98,1.41,1.84,1.38h9.28v4.85h-3.12m11.23-.01h-6.33v-4.81h6.33v4.81Zm-6.16-.17h5.99v-4.48h-5.99v4.48Zm17.36-6.41H1.91V2.23h28.73v18.99Zm-28.57-.17h28.4V2.39H2.08v18.66Z"/>
      </g>
    </g>
  </g>
</svg>