<?xml version="1.0" encoding="utf-8"?>
<!-- Generator: Adobe Illustrator 27.2.0, SVG Export Plug-In . SVG Version: 6.00 Build 0)  -->
<svg version="1.1" id="레이어_1" xmlns="http://www.w3.org/2000/svg" xmlns:xlink="http://www.w3.org/1999/xlink" x="0px"
	 y="0px" viewBox="0 0 384 384" style="enable-background:new 0 0 384 384;" xml:space="preserve">
<style type="text/css">
	.st0{fill:#003091;}
	.st1{fill:#003197;}
	.st2{fill:#313131;}
	.st3{clip-path:url(#SVGID_00000045591286742464292270000002224228549563424187_);}
	.st4{fill:#5979BB;}
	.st5{fill:#707070;}
	.st6{fill:#EBC0D0;}
	.st7{fill:#FFFFFF;}
	.st8{fill:#C0D6EB;}
	.st9{fill:#002F92;}
	.st10{fill:#C6C6C6;}
	.st11{clip-path:url(#SVGID_00000036929829647553358870000005026325356028425655_);}
	.st12{clip-path:url(#SVGID_00000011032290815937933500000018432284921534187163_);}
	.st13{clip-path:url(#SVGID_00000083074231749051145580000001073033745321161101_);}
</style>
<g id="그룹_295" transform="translate(0.5 0.5)">
	<g id="패스_138_00000052091759892605342760000013761051540730199452_">
		<path class="st5" d="M368.33,201.39H14.08c-5.23,0-9.46-4.23-9.46-9.46c0-5.23,4.23-9.46,9.46-9.46h354.26
			c5.23,0,9.46,4.23,9.46,9.46C377.8,197.16,373.56,201.39,368.33,201.39z"/>
	</g>
	<g id="패스_140_00000026851232419468271910000012356341582763824516_">
		<path class="st5" d="M191.19,378.5c-5.23,0-9.46-4.23-9.46-9.46V14.8c0-5.23,4.23-9.46,9.46-9.46c5.23,0,9.46,4.23,9.46,9.46
			v354.24C200.65,374.27,196.42,378.5,191.19,378.5z"/>
	</g>
</g>
</svg>
