<?xml version="1.0" encoding="UTF-8"?>
<svg id="_레이어_1" data-name="레이어 1" xmlns="http://www.w3.org/2000/svg" xmlns:xlink="http://www.w3.org/1999/xlink" viewBox="0 0 309.73 308.78">
  <defs>
    <style>
      .cls-1 {
        fill: none;
      }

      .cls-2 {
        clip-path: url(#clippath);
      }

      .cls-3 {
        fill: #0e3481;
      }

      .cls-4 {
        clip-path: url(#clippath-1);
      }

      .cls-5 {
        isolation: isolate;
      }
    </style>
    <clipPath id="clippath">
      <rect id="_사각형_229-2" data-name="사각형 229-2" class="cls-1" x="-124.69" y="4.72" width="430" height="590" rx="71" ry="71"/>
    </clipPath>
    <clipPath id="clippath-1">
      <rect class="cls-1" x="7.72" y="-37.77" width="343.58" height="351.29" transform="translate(18 296.45) rotate(-82)"/>
    </clipPath>
  </defs>
  <g class="cls-2">
    <g class="cls-5">
      <path class="cls-3" d="m101.41,188.17v-75.01l-21.32,12.22-8.06-13.52,31.33-17.42h14.69v93.73h-16.64Z"/>
      <path class="cls-3" d="m156.01,109.26h16.51v16.9h-16.51v-16.9Zm0,58.5h16.51v16.9h-16.51v-16.9Z"/>
      <path class="cls-3" d="m234.41,188.17v-75.01l-21.32,12.22-8.06-13.52,31.33-17.42h14.69v93.73h-16.64Z"/>
    </g>
    <g id="_그룹_309" data-name="그룹 309">
      <g class="cls-4">
        <g id="_그룹_308" data-name="그룹 308">
          <path id="_패스_297" data-name="패스 297" class="cls-3" d="m6.19,109.8C19.12,18.12,107.64-45.55,203.5-32.14c95.86,13.42,163.33,98.93,150.39,190.61-12.94,91.68-101.45,155.35-197.32,141.93-25.13-3.44-49.25-12.13-70.8-25.52l-61.04,14.69,12.24-59.71C11.13,194.74.2,152.18,6.18,109.8m339.33,47.5c12.29-87.08-51.95-168.31-143.19-181.09C111.07-36.57,26.85,23.89,14.57,110.97c-5.75,40.78,5.02,81.75,30.33,115.37l1.14,1.51-10.33,50.41,51.58-12.41,1.52.96c20.9,13.28,44.42,21.89,68.95,25.24,91.24,12.77,175.47-47.69,187.76-134.77"/>
        </g>
      </g>
    </g>
  </g>
</svg>