<?xml version="1.0" encoding="utf-8"?>
<!-- Generator: Adobe Illustrator 27.2.0, SVG Export Plug-In . SVG Version: 6.00 Build 0)  -->
<svg version="1.1" id="레이어_1" xmlns="http://www.w3.org/2000/svg" xmlns:xlink="http://www.w3.org/1999/xlink" x="0px"
	 y="0px" viewBox="0 0 384 384" style="enable-background:new 0 0 384 384;" xml:space="preserve">
<style type="text/css">
	.st0{fill:#003091;}
	.st1{fill:#003197;}
	.st2{fill:#313131;}
	.st3{clip-path:url(#SVGID_00000157278770214578286860000008116628543580874417_);}
	.st4{fill:#5979BB;}
	.st5{fill:#707070;}
	.st6{fill:#EBC0D0;}
	.st7{fill:#FFFFFF;}
	.st8{fill:#C0D6EB;}
	.st9{fill:#002F92;}
	.st10{fill:#C6C6C6;}
	.st11{clip-path:url(#SVGID_00000032643535042779862640000009199651410814691508_);}
	.st12{clip-path:url(#SVGID_00000111169186664230257300000015100058475824848038_);}
	.st13{clip-path:url(#SVGID_00000080199770416690895900000011837264594744241598_);}
</style>
<g id="그룹_326" transform="translate(-5148.003 -907)">
	<g id="패스_324_00000040541909233567500630000010189136296483746719_" transform="translate(5148.003 907)">
		<path class="st10" d="M192.19,379.34c-25.28,0-49.8-4.95-72.88-14.71c-22.3-9.43-42.32-22.93-59.52-40.13
			c-17.2-17.2-30.7-37.22-40.13-59.51C9.9,241.9,4.95,217.38,4.95,192.1s4.95-49.8,14.71-72.88c9.43-22.3,22.93-42.32,40.13-59.52
			s37.22-30.7,59.52-40.13c23.08-9.76,47.6-14.71,72.88-14.71s49.8,4.95,72.88,14.71c22.3,9.43,42.32,22.93,59.52,40.13
			c17.2,17.2,30.7,37.22,40.13,59.52c9.76,23.08,14.71,47.6,14.71,72.88s-4.95,49.8-14.71,72.88c-9.43,22.3-22.93,42.32-40.13,59.51
			c-17.2,17.2-37.22,30.7-59.52,40.13C241.99,374.39,217.47,379.34,192.19,379.34z"/>
		<path class="st5" d="M192.19,7.45c-49.32,0-95.69,19.21-130.57,54.08S7.53,142.78,7.53,192.1s19.21,95.69,54.08,130.57
			c34.88,34.88,81.25,54.08,130.57,54.08s95.69-19.21,130.57-54.08s54.08-81.25,54.08-130.57s-19.21-95.69-54.08-130.57
			C287.88,26.66,241.51,7.45,192.19,7.45 M192.19,2.29C297.02,2.29,382,87.27,382,192.1s-84.98,189.81-189.81,189.81
			S2.38,296.93,2.38,192.1S87.36,2.29,192.19,2.29z"/>
	</g>
	<circle id="타원_46_00000177459224838346751640000008276116546459482254_" class="st7" cx="5339.95" cy="1046.6" r="71.92"/>
	<path id="패스_325_00000010997697429575552700000015684798942063277716_" class="st7" d="M5341.88,1144.46
		c85.35,0,152.21,54.1,152.56,53.35c-33.14,52.33-90.62,84.2-152.56,84.6c-64.21,0.41-123.99-32.72-157.67-87.39
		C5184.61,1194.31,5256.53,1144.46,5341.88,1144.46z"/>
</g>
</svg>
