<?xml version="1.0" encoding="UTF-8"?>
<svg id="_레이어_1" data-name="레이어 1" xmlns="http://www.w3.org/2000/svg" xmlns:xlink="http://www.w3.org/1999/xlink" viewBox="0 0 31.47 23.95">
  <defs>
    <style>
      .cls-1 {
        fill: none;
      }

      .cls-2 {
        clip-path: url(#clippath);
      }

      .cls-3 {
        fill: #313131;
      }
    </style>
    <clipPath id="clippath">
      <rect class="cls-1" x=".16" y=".29" width="31.12" height="23.34"/>
    </clipPath>
  </defs>
  <g id="_그룹_400" data-name="그룹 400">
    <g class="cls-2">
      <g id="_그룹_399" data-name="그룹 399">
        <path id="_패스_369" data-name="패스 369" class="cls-3" d="m29.72,20.54H1.71c0,.78,0,1.55,0,2.31,0,.39-.28.73-.68.78-.35.05-.69-.16-.81-.49-.04-.16-.06-.33-.06-.5v-9.66c-.12-1.42.76-2.74,2.12-3.18.22-.09.21-.22.21-.39,0-1.88-.01-3.77,0-5.65-.05-1.73,1.23-3.22,2.95-3.43.2-.03.41-.04.62-.03h19.29c1.88-.1,3.48,1.34,3.58,3.21,0,.12,0,.23,0,.35,0,1.84,0,3.67,0,5.51-.04.22.1.42.31.48,1.21.42,2.02,1.56,2.02,2.85.02,1.4,0,2.8,0,4.19,0,1.92,0,3.84,0,5.76,0,.17-.01.34-.06.5-.13.35-.48.55-.84.49-.38-.06-.65-.39-.65-.77-.01-.63,0-1.26,0-1.9v-.42m-2.35-10.92V3.88c.09-1.03-.67-1.94-1.7-2.03-.1,0-.21,0-.31,0-6.44,0-12.89,0-19.33,0-1.03-.08-1.92.7-2,1.73,0,.1,0,.19,0,.29v5.4c0,.12.01.23.02.36h1.53v-.38c-.02-1.48,1.17-2.7,2.66-2.71,0,0,.01,0,.02,0,1.41-.03,2.82-.02,4.23,0,1.05-.02,1.98.65,2.29,1.65.09.47.14.96.13,1.44h1.67s0-.09,0-.13c-.32-1.27.44-2.56,1.72-2.89.2-.05.4-.07.61-.07,1.42-.03,2.84-.03,4.27,0,1.36,0,2.5,1.04,2.63,2.4.03.23.03.45.05.7h1.53Zm2.32,6.26H1.73v3.07h27.98v-3.07ZM1.71,14.27h28.01c0-.57.02-1.12,0-1.66-.05-.8-.72-1.42-1.53-1.41H3.25c-.8-.01-1.48.61-1.53,1.41-.03.54,0,1.09,0,1.66m22.52-4.65c.14-1.03-.31-1.55-1.29-1.55h-2.3c-.58,0-1.16,0-1.75,0-.45,0-.82.34-.85.79.05.41.39.73.81.75.07,0,.15,0,.22,0h5.16Zm-17.04,0h5.31c.12,0,.24-.03.35-.09.31-.1.52-.39.51-.72-.05-.36-.33-.65-.69-.71-.13-.02-.27-.02-.4-.02h-3.79c-.99,0-1.43.51-1.3,1.55"/>
      </g>
    </g>
  </g>
</svg>