<?xml version="1.0" encoding="UTF-8"?>
<svg id="_레이어_1" data-name="레이어 1" xmlns="http://www.w3.org/2000/svg" xmlns:xlink="http://www.w3.org/1999/xlink" viewBox="0 0 31.41 30">
  <defs>
    <style>
      .cls-1 {
        fill: none;
      }

      .cls-2 {
        clip-path: url(#clippath);
      }

      .cls-3 {
        fill: #313131;
      }
    </style>
    <clipPath id="clippath">
      <rect class="cls-1" x=".01" y="4.4" width="31.36" height="24.22"/>
    </clipPath>
  </defs>
  <g id="_그룹_448" data-name="그룹 448">
    <g class="cls-2">
      <g id="_그룹_357" data-name="그룹 357">
        <path id="_패스_340" data-name="패스 340" class="cls-3" d="m.01,15.6c.21-.48.72-.76,1.24-.68.79.03,1.59,0,2.41,0,.03-.09.06-.17.08-.26.39-1.78,1.8-3.16,3.59-3.51.18-.04.28-.08.29-.3.11-2.32,2.07-4.11,4.39-4,.55.03,1.09.16,1.59.39l.15.07c.3-.48.63-.93.99-1.36,1.05-1.16,2.68-1.6,4.17-1.13,1.52.4,2.68,1.64,2.96,3.19.02.19.15.34.34.38,1,.28,1.86.93,2.41,1.82.05.08.1.16.17.27.12-.13.22-.25.32-.37l4.45-5.17c.67-.78,1.29-.73,1.81.13v.49c-.1.16-.21.32-.32.47-1.27,1.48-2.54,2.95-3.81,4.43-.42.49-.85.99-1.28,1.49,1.26.53,2.18,1.64,2.5,2.96.58,0,1.13.02,1.68,0,.52-.08,1.03.2,1.23.68v1.04c-.02.17-.05.34-.08.51-.33,2.46-1.45,4.75-3.2,6.52-2.23,2.29-5.09,3.85-8.22,4.49-2.49.56-5.08.62-7.59.16-2.72-.45-5.28-1.57-7.46-3.26-2.35-1.73-3.98-4.25-4.6-7.1-.09-.44-.14-.88-.21-1.32v-1.04m1.86,1.18c.13.57.21,1.12.38,1.65.89,2.63,2.72,4.83,5.15,6.16,2.07,1.23,4.4,1.96,6.8,2.12,3.34.33,6.71-.38,9.63-2.04,2.33-1.25,4.15-3.28,5.13-5.74.27-.69.44-1.42.51-2.16H1.87Zm24.65-1.86c-.08-.15-.13-.25-.19-.35-.45-.68-1.2-1.09-2.01-1.1-.48.02-.88-.36-.89-.84,0-.03,0-.06,0-.09.03-1.32-1-2.41-2.31-2.48-.75-.04-.99-.37-.99-1.14.03-1.3-1-2.39-2.3-2.42-.17,0-.34,0-.51.04-1.12.22-1.93,1.21-1.93,2.35,0,.26-.06.52-.19.75-.37.55-1.03.5-1.54-.09-.83-1.01-2.33-1.15-3.34-.32-.7.57-1.01,1.49-.8,2.37.18.87-.21,1.33-1.1,1.29-.64-.03-1.27.15-1.78.53-.52.36-.89.89-1.06,1.5h20.95Z"/>
      </g>
    </g>
  </g>
</svg>