<?xml version="1.0" encoding="UTF-8"?>
<svg id="_레이어_1" data-name="레이어 1" xmlns="http://www.w3.org/2000/svg" xmlns:xlink="http://www.w3.org/1999/xlink" viewBox="0 0 60.82 64.25">
  <defs>
    <style>
      .cls-1 {
        fill: none;
      }

      .cls-2 {
        clip-path: url(#clippath);
      }

      .cls-3 {
        fill: #5774b0;
      }
    </style>
    <clipPath id="clippath">
      <rect class="cls-1" x=".82" y="1.25" width="59" height="62"/>
    </clipPath>
  </defs>
  <g id="_그룹_96" data-name="그룹 96">
    <g class="cls-2">
      <g id="_그룹_94" data-name="그룹 94">
        <path id="_패스_121" data-name="패스 121" class="cls-3" d="m55.98,63.25c-.98-.39-1.85-1.02-2.51-1.85-4.44-4.7-8.89-9.4-13.35-14.09-.15-.16-.3-.32-.46-.5-6.62,4.44-13.74,5.69-21.34,3.4-5.52-1.64-10.26-5.23-13.34-10.09C-2.06,29.48,0,15.26,9.78,7.06c9.08-7.78,22.49-7.75,31.53.08,5.1,4.22,8.25,10.35,8.74,16.95.62,6.61-1.42,13.18-5.66,18.29.28.3.56.6.83.89,4.49,4.74,8.99,9.48,13.48,14.21,1.36,1.19,1.5,3.26.31,4.62-.04.04-.08.08-.11.12-.53.41-1.1.75-1.71,1.02h-1.19ZM25.52,7.81c-10.21.15-18.36,8.55-18.21,18.76.15,10,8.22,18.07,18.21,18.21,10.21-.15,18.36-8.55,18.21-18.76-.15-10-8.22-18.07-18.21-18.21"/>
      </g>
    </g>
  </g>
</svg>