<?xml version="1.0" encoding="UTF-8"?>
<svg id="_레이어_1" data-name="레이어 1" xmlns="http://www.w3.org/2000/svg" xmlns:xlink="http://www.w3.org/1999/xlink" viewBox="0 0 30 30">
  <defs>
    <style>
      .cls-1 {
        fill: none;
      }

      .cls-2 {
        clip-path: url(#clippath);
      }

      .cls-3 {
        fill: #313131;
      }
    </style>
    <clipPath id="clippath">
      <rect class="cls-1" x=".15" y="3.15" width="29.49" height="22.51"/>
    </clipPath>
  </defs>
  <g id="_그룹_446" data-name="그룹 446">
    <g class="cls-2">
      <g id="_그룹_406" data-name="그룹 406">
        <path id="_패스_372" data-name="패스 372" class="cls-3" d="m14.88,25.66H3.57c-1.76.13-3.29-1.19-3.42-2.94-.01-.15-.01-.3,0-.45V6.54c-.12-1.75,1.21-3.27,2.96-3.39.14,0,.28,0,.42,0h22.73c1.75-.11,3.27,1.22,3.38,2.97,0,.13,0,.26,0,.39,0,5.27,0,10.53,0,15.8.1,1.75-1.24,3.26-3,3.36-.13,0-.26,0-.39,0h-11.38m.02-1.73h11.34c.81.11,1.55-.45,1.67-1.26.02-.13.02-.27,0-.4,0-5.24,0-10.48,0-15.73.11-.81-.45-1.55-1.26-1.66-.13-.02-.27-.02-.4,0H3.55c-.81-.11-1.55.45-1.66,1.26-.02.13-.02.27,0,.4v15.73c-.11.81.45,1.55,1.26,1.66.13.02.27.02.4,0h11.34"/>
        <path id="_패스_373" data-name="패스 373" class="cls-3" d="m14.93,16.94c.77.35,1.44.89,1.94,1.57.38.59.71,1.22.97,1.87.21.41.04.92-.37,1.13-.05.03-.11.05-.16.06-.46.14-.95-.12-1.09-.59-.01-.03-.02-.07-.02-.1-.36-1.29-1.39-2.29-2.69-2.61-.14-.04-.28-.07-.42-.08-1.12-.06-2.24-.05-3.35.03-1.47.15-2.7,1.2-3.07,2.64-.02.06-.03.11-.06.17-.16.45-.65.68-1.1.52-.42-.15-.66-.61-.54-1.04.37-1.43,1.3-2.64,2.59-3.37.1-.06.21-.11.31-.17.01,0,.02-.02.05-.06-1.52-1.26-2.25-3.24-1.9-5.18.21-1.32.92-2.52,1.98-3.34,2.36-1.92,5.83-1.56,7.74.8,1.92,2.36,1.56,5.83-.8,7.74h0m-3.52-.52c2.07,0,3.75-1.67,3.76-3.74,0-2.07-1.67-3.75-3.74-3.76-2.06,0-3.74,1.66-3.76,3.72-.01,2.08,1.66,3.77,3.74,3.78h0"/>
        <path id="_패스_374" data-name="패스 374" class="cls-3" d="m22.41,10.65c-.55,0-1.11,0-1.66,0-.48.04-.9-.31-.94-.79-.04-.48.31-.9.79-.94.04,0,.09,0,.13,0,1.12,0,2.24,0,3.35,0,.48-.03.89.33.92.81.03.48-.33.89-.81.92-.04,0-.09,0-.13,0-.55,0-1.11,0-1.66,0"/>
        <path id="_패스_375" data-name="패스 375" class="cls-3" d="m22.41,15.27c-.55,0-1.11,0-1.66,0-.48.04-.9-.31-.94-.79-.04-.48.31-.9.79-.94.04,0,.09,0,.13,0,1.12,0,2.23,0,3.35,0,.48-.03.89.33.92.81.03.48-.33.89-.81.92-.04,0-.09,0-.13,0-.55,0-1.11,0-1.66,0"/>
        <path id="_패스_376" data-name="패스 376" class="cls-3" d="m21.83,18.16h1.08c.48-.04.89.32.93.8.04.48-.32.89-.8.93-.04,0-.08,0-.12,0-.73,0-1.47,0-2.2,0-.48.03-.89-.34-.91-.82-.03-.48.34-.89.82-.91.04,0,.08,0,.12,0,.36,0,.72,0,1.08,0"/>
      </g>
    </g>
  </g>
</svg>