<?xml version="1.0" encoding="utf-8"?>
<!-- Generator: Adobe Illustrator 27.2.0, SVG Export Plug-In . SVG Version: 6.00 Build 0)  -->
<svg version="1.1" id="레이어_1" xmlns="http://www.w3.org/2000/svg" xmlns:xlink="http://www.w3.org/1999/xlink" x="0px"
	 y="0px" viewBox="0 0 384 384" style="enable-background:new 0 0 384 384;" xml:space="preserve">
<style type="text/css">
	.st0{fill:#003091;}
	.st1{fill:#003197;}
	.st2{fill:#313131;}
	.st3{clip-path:url(#SVGID_00000043457260507617777260000011934253159189707421_);}
	.st4{fill:#5979BB;}
	.st5{fill:#707070;}
	.st6{fill:#EBC0D0;}
	.st7{fill:#FFFFFF;}
	.st8{fill:#C0D6EB;}
	.st9{fill:#002F92;}
	.st10{fill:#C6C6C6;}
	.st11{clip-path:url(#SVGID_00000130607388007347200450000006530331778844075449_);}
	.st12{clip-path:url(#SVGID_00000163786964347651264490000011000239945429557174_);}
	.st13{clip-path:url(#SVGID_00000087407528232408297420000012023712806360447658_);}
</style>
<g id="그룹_347" transform="translate(-70 -467)">
	<g id="그룹_346" transform="translate(70 467)">
		<g>
			<defs>
				<rect id="SVGID_00000067956484072432202850000016527383682253270205_" x="4.37" y="3.05" width="375.9" height="376.95"/>
			</defs>
			<clipPath id="SVGID_00000152249757891637730110000001989534463230513553_">
				<use xlink:href="#SVGID_00000067956484072432202850000016527383682253270205_"  style="overflow:visible;"/>
			</clipPath>
			<g id="그룹_345" style="clip-path:url(#SVGID_00000152249757891637730110000001989534463230513553_);">
				<path id="패스_332" class="st9" d="M187.91,3.05c98.53-1.58,181.8,72.69,191.43,170.77c3.75,36.81-3.67,73.89-21.31,106.41
					c-1.93,3.36-2.29,7.39-0.99,11.04c7.38,24,14.54,48.15,21.83,72.22c1.43,4.71,2.53,9.36-1.5,13.29
					c-3.71,3.15-8.92,3.81-13.3,1.69c-24.23-7.34-48.49-14.53-72.68-21.95c-3.46-1.21-7.28-0.83-10.43,1.04
					c-91.82,48.71-205.74,13.76-254.45-78.06S12.75,73.75,104.57,25.05c18.26-9.69,38-16.3,58.41-19.57
					C172.74,3.98,182.65,3.54,187.91,3.05 M355.26,353.98c-0.76-2.89-1.26-4.82-1.77-6.73c-5.58-19.41-11.05-38.85-16.86-58.2
					c-1.55-4.72-0.93-9.89,1.69-14.11c46.42-80.6,18.72-183.56-61.88-229.98S92.88,26.24,46.46,106.84
					c-19.74,34.28-26.79,74.42-19.9,113.37c15.63,91.36,102.37,152.75,193.73,137.11c19.87-3.4,38.96-10.35,56.36-20.52
					c4.16-2.71,9.35-3.32,14.03-1.65c8.99,2.94,18.11,5.47,27.21,8.1c12.16,3.52,24.34,7,37.37,10.72"/>
				<path id="패스_333" class="st9" d="M136.03,191.52c0,8.52-6.91,15.43-15.43,15.43s-15.43-6.91-15.43-15.43
					c0-8.52,6.91-15.43,15.43-15.43S136.03,183,136.03,191.52L136.03,191.52"/>
				<path id="패스_334" class="st9" d="M207.76,191.52c0,8.52-6.91,15.43-15.43,15.43s-15.43-6.91-15.43-15.43
					c0-8.52,6.91-15.43,15.43-15.43S207.76,183,207.76,191.52L207.76,191.52"/>
				<path id="패스_335" class="st9" d="M279.49,191.52c0,8.52-6.91,15.43-15.43,15.43c-8.52,0-15.43-6.91-15.43-15.43
					c0-8.52,6.91-15.43,15.43-15.43C272.58,176.09,279.49,183,279.49,191.52L279.49,191.52"/>
			</g>
		</g>
	</g>
</g>
</svg>
