<?xml version="1.0" encoding="utf-8"?>
<!-- Generator: Adobe Illustrator 27.2.0, SVG Export Plug-In . SVG Version: 6.00 Build 0)  -->
<svg version="1.1" id="레이어_1" xmlns="http://www.w3.org/2000/svg" xmlns:xlink="http://www.w3.org/1999/xlink" x="0px"
	 y="0px" viewBox="0 0 384 384" style="enable-background:new 0 0 384 384;" xml:space="preserve">
<style type="text/css">
	.st0{fill:#003091;}
	.st1{fill:#003197;}
	.st2{fill:#313131;}
	.st3{clip-path:url(#SVGID_00000000914151089145439450000000355688764433277336_);}
	.st4{fill:#5979BB;}
	.st5{fill:#707070;}
	.st6{fill:#EBC0D0;}
	.st7{fill:#FFFFFF;}
	.st8{fill:#C0D6EB;}
	.st9{fill:#002F92;}
	.st10{fill:#C6C6C6;}
	.st11{clip-path:url(#SVGID_00000090991841372633660950000009403198574882081963_);}
	.st12{clip-path:url(#SVGID_00000084519479664500928470000006643570878264695449_);}
	.st13{clip-path:url(#SVGID_00000178912593005482671840000008745582997497517714_);}
</style>
<g id="그룹_353" transform="translate(-164.871 -568.156)">
	<g id="그룹_351" transform="translate(164.871 568.156)">
		<g>
			<defs>
				<rect id="SVGID_00000121968241689134596880000017440659152464134578_" x="1.34" y="0.89" width="382.11" height="382.11"/>
			</defs>
			<clipPath id="SVGID_00000011716063938237653180000001691815162431057299_">
				<use xlink:href="#SVGID_00000121968241689134596880000017440659152464134578_"  style="overflow:visible;"/>
			</clipPath>
			
				<g id="그룹_350" transform="translate(0 0)" style="clip-path:url(#SVGID_00000011716063938237653180000001691815162431057299_);">
				<path id="패스_336" class="st9" d="M374.21,191.94c0,100.41-81.4,181.81-181.81,181.81S10.59,292.36,10.59,191.94
					c0-100.41,81.4-181.81,181.81-181.81c0,0,0,0,0,0C292.81,10.13,374.21,91.53,374.21,191.94"/>
				<path id="패스_337" class="st9" d="M192.4,383C86.88,382.99,1.35,297.45,1.35,191.93S86.91,0.88,192.42,0.89
					C297.93,0.9,383.47,86.43,383.47,191.94C383.35,297.42,297.87,382.89,192.4,383 M192.4,19.38
					C97.08,19.37,19.81,96.63,19.8,191.94s77.25,172.59,172.57,172.59s172.59-77.25,172.59-172.57c0-0.01,0-0.02,0-0.03
					c-0.11-95.28-77.32-172.49-172.59-172.59"/>
			</g>
		</g>
	</g>
	<g id="그룹_352" transform="translate(0.249 2.578)">
		<path id="패스_338" class="st7" d="M337.25,661.5h39.55l-2.42,128.54h-33.6L337.25,661.5z"/>
		<circle id="타원_49" class="st7" cx="356.46" cy="834.34" r="19.21"/>
	</g>
</g>
</svg>
